solid OpenSCAD_Model
  facet normal 1 -0 0
    outer loop
      vertex 57.7 1.1 7.59
      vertex 57.7 4.1 3
      vertex 57.7 4.1 7.59
    endloop
  endfacet
  facet normal 1 0 0
    outer loop
      vertex 57.7 4.1 3
      vertex 57.7 1.1 7.59
      vertex 57.7 1.1 3
    endloop
  endfacet
  facet normal -0 0 1
    outer loop
      vertex 47.7 4.1 7.59
      vertex 57.7 1.1 7.59
      vertex 57.7 4.1 7.59
    endloop
  endfacet
  facet normal 0 0 1
    outer loop
      vertex 57.7 1.1 7.59
      vertex 47.7 4.1 7.59
      vertex 47.7 1.1 7.59
    endloop
  endfacet
  facet normal -1 0 0
    outer loop
      vertex 47.7 1.1 3
      vertex 47.7 4.1 7.59
      vertex 47.7 4.1 3
    endloop
  endfacet
  facet normal -1 -0 0
    outer loop
      vertex 47.7 4.1 7.59
      vertex 47.7 1.1 3
      vertex 47.7 1.1 7.59
    endloop
  endfacet
  facet normal 0 1 -0
    outer loop
      vertex 57.7 4.1 3
      vertex 47.7 4.1 7.59
      vertex 57.7 4.1 7.59
    endloop
  endfacet
  facet normal 0 1 0
    outer loop
      vertex 47.7 4.1 7.59
      vertex 57.7 4.1 3
      vertex 47.7 4.1 3
    endloop
  endfacet
  facet normal 0 -1 0
    outer loop
      vertex 47.7 1.1 3
      vertex 57.7 1.1 7.59
      vertex 47.7 1.1 7.59
    endloop
  endfacet
  facet normal 0 -1 -0
    outer loop
      vertex 57.7 1.1 7.59
      vertex 47.7 1.1 3
      vertex 57.7 1.1 3
    endloop
  endfacet
  facet normal 1 -0 0
    outer loop
      vertex 147.7 1.1 7.59
      vertex 147.7 4.1 3
      vertex 147.7 4.1 7.59
    endloop
  endfacet
  facet normal 1 0 0
    outer loop
      vertex 147.7 4.1 3
      vertex 147.7 1.1 7.59
      vertex 147.7 1.1 3
    endloop
  endfacet
  facet normal -0 0 1
    outer loop
      vertex 137.7 4.1 7.59
      vertex 147.7 1.1 7.59
      vertex 147.7 4.1 7.59
    endloop
  endfacet
  facet normal 0 0 1
    outer loop
      vertex 147.7 1.1 7.59
      vertex 137.7 4.1 7.59
      vertex 137.7 1.1 7.59
    endloop
  endfacet
  facet normal -1 0 0
    outer loop
      vertex 137.7 1.1 3
      vertex 137.7 4.1 7.59
      vertex 137.7 4.1 3
    endloop
  endfacet
  facet normal -1 -0 0
    outer loop
      vertex 137.7 4.1 7.59
      vertex 137.7 1.1 3
      vertex 137.7 1.1 7.59
    endloop
  endfacet
  facet normal 0 1 -0
    outer loop
      vertex 147.7 4.1 3
      vertex 137.7 4.1 7.59
      vertex 147.7 4.1 7.59
    endloop
  endfacet
  facet normal 0 1 0
    outer loop
      vertex 137.7 4.1 7.59
      vertex 147.7 4.1 3
      vertex 137.7 4.1 3
    endloop
  endfacet
  facet normal 0 -1 0
    outer loop
      vertex 137.7 1.1 3
      vertex 147.7 1.1 7.59
      vertex 137.7 1.1 7.59
    endloop
  endfacet
  facet normal 0 -1 -0
    outer loop
      vertex 147.7 1.1 7.59
      vertex 137.7 1.1 3
      vertex 147.7 1.1 3
    endloop
  endfacet
  facet normal 1 0 0
    outer loop
      vertex 56.7 119.7 7
      vertex 56.7 121.69 7.8
      vertex 56.7 119.89 9.5
    endloop
  endfacet
  facet normal 1 0 0
    outer loop
      vertex 56.7 121.69 7.8
      vertex 56.7 119.7 7
      vertex 56.7 121.69 7
    endloop
  endfacet
  facet normal 1 -0 0
    outer loop
      vertex 56.7 117.7 9.5
      vertex 56.7 119.7 7
      vertex 56.7 119.89 9.5
    endloop
  endfacet
  facet normal 1 0 0
    outer loop
      vertex 56.7 117.7 3
      vertex 56.7 119.7 7
      vertex 56.7 117.7 9.5
    endloop
  endfacet
  facet normal 1 0 0
    outer loop
      vertex 56.7 119.7 7
      vertex 56.7 117.7 3
      vertex 56.7 119.7 3
    endloop
  endfacet
  facet normal -0 0 1
    outer loop
      vertex 48.7 119.89 9.5
      vertex 56.7 117.7 9.5
      vertex 56.7 119.89 9.5
    endloop
  endfacet
  facet normal 0 0 1
    outer loop
      vertex 56.7 117.7 9.5
      vertex 48.7 119.89 9.5
      vertex 48.7 117.7 9.5
    endloop
  endfacet
  facet normal -1 0 0
    outer loop
      vertex 48.7 119.7 3
      vertex 48.7 117.7 3
      vertex 48.7 119.7 7
    endloop
  endfacet
  facet normal -1 0 0
    outer loop
      vertex 48.7 119.7 7
      vertex 48.7 121.69 7.8
      vertex 48.7 121.69 7
    endloop
  endfacet
  facet normal -1 -0 0
    outer loop
      vertex 48.7 121.69 7.8
      vertex 48.7 119.7 7
      vertex 48.7 119.89 9.5
    endloop
  endfacet
  facet normal -1 0 0
    outer loop
      vertex 48.7 117.7 9.5
      vertex 48.7 119.7 7
      vertex 48.7 117.7 3
    endloop
  endfacet
  facet normal -1 0 0
    outer loop
      vertex 48.7 119.7 7
      vertex 48.7 117.7 9.5
      vertex 48.7 119.89 9.5
    endloop
  endfacet
  facet normal 0 1 -0
    outer loop
      vertex 56.7 119.7 3
      vertex 48.7 119.7 7
      vertex 56.7 119.7 7
    endloop
  endfacet
  facet normal 0 1 0
    outer loop
      vertex 48.7 119.7 7
      vertex 56.7 119.7 3
      vertex 48.7 119.7 3
    endloop
  endfacet
  facet normal 0 -1 0
    outer loop
      vertex 48.7 117.7 3
      vertex 56.7 117.7 9.5
      vertex 48.7 117.7 9.5
    endloop
  endfacet
  facet normal 0 -1 -0
    outer loop
      vertex 56.7 117.7 9.5
      vertex 48.7 117.7 3
      vertex 56.7 117.7 3
    endloop
  endfacet
  facet normal 0 1 -0
    outer loop
      vertex 56.7 121.69 7
      vertex 48.7 121.69 7.8
      vertex 56.7 121.69 7.8
    endloop
  endfacet
  facet normal 0 1 0
    outer loop
      vertex 48.7 121.69 7.8
      vertex 56.7 121.69 7
      vertex 48.7 121.69 7
    endloop
  endfacet
  facet normal 0 0 -1
    outer loop
      vertex 48.7 119.7 7
      vertex 56.7 121.69 7
      vertex 56.7 119.7 7
    endloop
  endfacet
  facet normal -0 0 -1
    outer loop
      vertex 56.7 121.69 7
      vertex 48.7 119.7 7
      vertex 48.7 121.69 7
    endloop
  endfacet
  facet normal -0 0.686624 0.727013
    outer loop
      vertex 48.7 121.69 7.8
      vertex 56.7 119.89 9.5
      vertex 56.7 121.69 7.8
    endloop
  endfacet
  facet normal 0 0.686624 0.727013
    outer loop
      vertex 56.7 119.89 9.5
      vertex 48.7 121.69 7.8
      vertex 48.7 119.89 9.5
    endloop
  endfacet
  facet normal 1 0 0
    outer loop
      vertex 146.7 119.7 7
      vertex 146.7 121.69 7.8
      vertex 146.7 119.89 9.5
    endloop
  endfacet
  facet normal 1 0 0
    outer loop
      vertex 146.7 121.69 7.8
      vertex 146.7 119.7 7
      vertex 146.7 121.69 7
    endloop
  endfacet
  facet normal 1 -0 0
    outer loop
      vertex 146.7 117.7 9.5
      vertex 146.7 119.7 7
      vertex 146.7 119.89 9.5
    endloop
  endfacet
  facet normal 1 0 0
    outer loop
      vertex 146.7 117.7 3
      vertex 146.7 119.7 7
      vertex 146.7 117.7 9.5
    endloop
  endfacet
  facet normal 1 0 0
    outer loop
      vertex 146.7 119.7 7
      vertex 146.7 117.7 3
      vertex 146.7 119.7 3
    endloop
  endfacet
  facet normal -0 0 1
    outer loop
      vertex 138.7 119.89 9.5
      vertex 146.7 117.7 9.5
      vertex 146.7 119.89 9.5
    endloop
  endfacet
  facet normal 0 0 1
    outer loop
      vertex 146.7 117.7 9.5
      vertex 138.7 119.89 9.5
      vertex 138.7 117.7 9.5
    endloop
  endfacet
  facet normal -1 0 0
    outer loop
      vertex 138.7 119.7 3
      vertex 138.7 117.7 3
      vertex 138.7 119.7 7
    endloop
  endfacet
  facet normal -1 0 0
    outer loop
      vertex 138.7 119.7 7
      vertex 138.7 121.69 7.8
      vertex 138.7 121.69 7
    endloop
  endfacet
  facet normal -1 -0 0
    outer loop
      vertex 138.7 121.69 7.8
      vertex 138.7 119.7 7
      vertex 138.7 119.89 9.5
    endloop
  endfacet
  facet normal -1 0 0
    outer loop
      vertex 138.7 117.7 9.5
      vertex 138.7 119.7 7
      vertex 138.7 117.7 3
    endloop
  endfacet
  facet normal -1 0 0
    outer loop
      vertex 138.7 119.7 7
      vertex 138.7 117.7 9.5
      vertex 138.7 119.89 9.5
    endloop
  endfacet
  facet normal 0 1 -0
    outer loop
      vertex 146.7 119.7 3
      vertex 138.7 119.7 7
      vertex 146.7 119.7 7
    endloop
  endfacet
  facet normal 0 1 0
    outer loop
      vertex 138.7 119.7 7
      vertex 146.7 119.7 3
      vertex 138.7 119.7 3
    endloop
  endfacet
  facet normal 0 -1 0
    outer loop
      vertex 138.7 117.7 3
      vertex 146.7 117.7 9.5
      vertex 138.7 117.7 9.5
    endloop
  endfacet
  facet normal 0 -1 -0
    outer loop
      vertex 146.7 117.7 9.5
      vertex 138.7 117.7 3
      vertex 146.7 117.7 3
    endloop
  endfacet
  facet normal 0 1 -0
    outer loop
      vertex 146.7 121.69 7
      vertex 138.7 121.69 7.8
      vertex 146.7 121.69 7.8
    endloop
  endfacet
  facet normal 0 1 0
    outer loop
      vertex 138.7 121.69 7.8
      vertex 146.7 121.69 7
      vertex 138.7 121.69 7
    endloop
  endfacet
  facet normal 0 0 -1
    outer loop
      vertex 138.7 119.7 7
      vertex 146.7 121.69 7
      vertex 146.7 119.7 7
    endloop
  endfacet
  facet normal -0 0 -1
    outer loop
      vertex 146.7 121.69 7
      vertex 138.7 119.7 7
      vertex 138.7 121.69 7
    endloop
  endfacet
  facet normal -0 0.686624 0.727013
    outer loop
      vertex 138.7 121.69 7.8
      vertex 146.7 119.89 9.5
      vertex 146.7 121.69 7.8
    endloop
  endfacet
  facet normal 0 0.686624 0.727013
    outer loop
      vertex 146.7 119.89 9.5
      vertex 138.7 121.69 7.8
      vertex 138.7 119.89 9.5
    endloop
  endfacet
  facet normal 0.321023 -0.947071 0
    outer loop
      vertex 191.916 0.160144 0
      vertex 192.499 0.35776 3
      vertex 191.916 0.160144 3
    endloop
  endfacet
  facet normal 0.321023 -0.947071 0
    outer loop
      vertex 192.499 0.35776 3
      vertex 191.916 0.160144 0
      vertex 192.499 0.35776 0
    endloop
  endfacet
  facet normal -0.195187 0.980766 0
    outer loop
      vertex 4.08652 126.56 0
      vertex 3.48355 126.44 3
      vertex 4.08652 126.56 3
    endloop
  endfacet
  facet normal -0.195187 0.980766 0
    outer loop
      vertex 3.48355 126.44 3
      vertex 4.08652 126.56 0
      vertex 3.48355 126.44 0
    endloop
  endfacet
  facet normal -0.0653988 -0.997859 0
    outer loop
      vertex 4.08652 0.0402098 0
      vertex 4.7 2.86102e-06 3
      vertex 4.08652 0.0402098 3
    endloop
  endfacet
  facet normal -0.0653988 -0.997859 -0
    outer loop
      vertex 4.7 2.86102e-06 3
      vertex 4.08652 0.0402098 0
      vertex 4.7 2.86102e-06 0
    endloop
  endfacet
  facet normal 0.442651 0.896694 -0
    outer loop
      vertex 193.05 125.97 0
      vertex 192.499 126.242 3
      vertex 193.05 125.97 3
    endloop
  endfacet
  facet normal 0.442651 0.896694 0
    outer loop
      vertex 192.499 126.242 3
      vertex 193.05 125.97 0
      vertex 192.499 126.242 0
    endloop
  endfacet
  facet normal -0.0650636 0.997881 0
    outer loop
      vertex 4.7 126.6 0
      vertex 4.08652 126.56 3
      vertex 4.7 126.6 3
    endloop
  endfacet
  facet normal -0.0650636 0.997881 0
    outer loop
      vertex 4.08652 126.56 3
      vertex 4.7 126.6 0
      vertex 4.08652 126.56 0
    endloop
  endfacet
  facet normal -0.751821 -0.659367 0
    outer loop
      vertex 1.37661 1.37661 0
      vertex 0.97124 1.83882 3
      vertex 0.97124 1.83882 0
    endloop
  endfacet
  facet normal -0.751821 -0.659367 0
    outer loop
      vertex 0.97124 1.83882 3
      vertex 1.37661 1.37661 0
      vertex 1.37661 1.37661 3
    endloop
  endfacet
  facet normal 0.195178 0.980768 -0
    outer loop
      vertex 191.916 126.44 0
      vertex 191.313 126.56 3
      vertex 191.916 126.44 3
    endloop
  endfacet
  facet normal 0.195178 0.980768 0
    outer loop
      vertex 191.313 126.56 3
      vertex 191.916 126.44 0
      vertex 191.313 126.56 0
    endloop
  endfacet
  facet normal -0.554948 0.831885 0
    outer loop
      vertex 2.34999 125.97 0
      vertex 1.83882 125.629 3
      vertex 2.34999 125.97 3
    endloop
  endfacet
  facet normal -0.554948 0.831885 0
    outer loop
      vertex 1.83882 125.629 3
      vertex 2.34999 125.97 0
      vertex 1.83882 125.629 0
    endloop
  endfacet
  facet normal -0.321998 0.94674 0
    outer loop
      vertex 3.48355 126.44 0
      vertex 2.90139 126.242 3
      vertex 3.48355 126.44 3
    endloop
  endfacet
  facet normal -0.321998 0.94674 0
    outer loop
      vertex 2.90139 126.242 3
      vertex 3.48355 126.44 0
      vertex 2.90139 126.242 0
    endloop
  endfacet
  facet normal 0.997881 -0.0650636 0
    outer loop
      vertex 195.36 4.08652 3
      vertex 195.4 4.7 0
      vertex 195.4 4.7 3
    endloop
  endfacet
  facet normal 0.997881 -0.0650636 0
    outer loop
      vertex 195.4 4.7 0
      vertex 195.36 4.08652 3
      vertex 195.36 4.08652 0
    endloop
  endfacet
  facet normal -0.83147 -0.55557 0
    outer loop
      vertex 0.97124 1.83882 0
      vertex 0.629687 2.34999 3
      vertex 0.629687 2.34999 0
    endloop
  endfacet
  facet normal -0.83147 -0.55557 0
    outer loop
      vertex 0.629687 2.34999 3
      vertex 0.97124 1.83882 0
      vertex 0.97124 1.83882 3
    endloop
  endfacet
  facet normal -1 0 0
    outer loop
      vertex 2.86102e-06 4.7 0
      vertex 2.86102e-06 121.9 3
      vertex 2.86102e-06 121.9 0
    endloop
  endfacet
  facet normal -1 -0 0
    outer loop
      vertex 2.86102e-06 121.9 3
      vertex 2.86102e-06 4.7 0
      vertex 2.86102e-06 4.7 3
    endloop
  endfacet
  facet normal 0.896694 0.442651 0
    outer loop
      vertex 195.042 123.699 3
      vertex 194.77 124.25 0
      vertex 194.77 124.25 3
    endloop
  endfacet
  facet normal 0.896694 0.442651 0
    outer loop
      vertex 194.77 124.25 0
      vertex 195.042 123.699 3
      vertex 195.042 123.699 0
    endloop
  endfacet
  facet normal -0.442393 0.896821 0
    outer loop
      vertex 2.90139 126.242 0
      vertex 2.34999 125.97 3
      vertex 2.90139 126.242 3
    endloop
  endfacet
  facet normal -0.442393 0.896821 0
    outer loop
      vertex 2.34999 125.97 3
      vertex 2.90139 126.242 0
      vertex 2.34999 125.97 0
    endloop
  endfacet
  facet normal -0.442297 -0.896868 0
    outer loop
      vertex 2.34999 0.629687 0
      vertex 2.90139 0.35776 3
      vertex 2.34999 0.629687 3
    endloop
  endfacet
  facet normal -0.442297 -0.896868 -0
    outer loop
      vertex 2.90139 0.35776 3
      vertex 2.34999 0.629687 0
      vertex 2.90139 0.35776 0
    endloop
  endfacet
  facet normal 0 -1 0
    outer loop
      vertex 4.7 2.86102e-06 0
      vertex 190.7 2.86102e-06 3
      vertex 4.7 2.86102e-06 3
    endloop
  endfacet
  facet normal 0 -1 -0
    outer loop
      vertex 190.7 2.86102e-06 3
      vertex 4.7 2.86102e-06 0
      vertex 190.7 2.86102e-06 0
    endloop
  endfacet
  facet normal 0.751314 -0.659945 0
    outer loop
      vertex 194.023 1.37661 3
      vertex 194.429 1.83882 0
      vertex 194.429 1.83882 3
    endloop
  endfacet
  facet normal 0.751314 -0.659945 0
    outer loop
      vertex 194.429 1.83882 0
      vertex 194.023 1.37661 3
      vertex 194.023 1.37661 0
    endloop
  endfacet
  facet normal -0.55557 -0.83147 0
    outer loop
      vertex 1.83882 0.97124 0
      vertex 2.34999 0.629687 3
      vertex 1.83882 0.97124 3
    endloop
  endfacet
  facet normal -0.55557 -0.83147 -0
    outer loop
      vertex 2.34999 0.629687 3
      vertex 1.83882 0.97124 0
      vertex 2.34999 0.629687 0
    endloop
  endfacet
  facet normal 0.321582 0.946882 -0
    outer loop
      vertex 192.499 126.242 0
      vertex 191.916 126.44 3
      vertex 192.499 126.242 3
    endloop
  endfacet
  facet normal 0.321582 0.946882 0
    outer loop
      vertex 191.916 126.44 3
      vertex 192.499 126.242 0
      vertex 191.916 126.44 0
    endloop
  endfacet
  facet normal 0.946882 0.321582 0
    outer loop
      vertex 195.24 123.116 3
      vertex 195.042 123.699 0
      vertex 195.042 123.699 3
    endloop
  endfacet
  facet normal 0.946882 0.321582 0
    outer loop
      vertex 195.042 123.699 0
      vertex 195.24 123.116 3
      vertex 195.24 123.116 0
    endloop
  endfacet
  facet normal -0.659945 0.751314 0
    outer loop
      vertex 1.83882 125.629 0
      vertex 1.37661 125.223 3
      vertex 1.83882 125.629 3
    endloop
  endfacet
  facet normal -0.659945 0.751314 0
    outer loop
      vertex 1.37661 125.223 3
      vertex 1.83882 125.629 0
      vertex 1.37661 125.223 0
    endloop
  endfacet
  facet normal 1 -0 0
    outer loop
      vertex 195.4 4.7 3
      vertex 195.4 121.9 0
      vertex 195.4 121.9 3
    endloop
  endfacet
  facet normal 1 0 0
    outer loop
      vertex 195.4 121.9 0
      vertex 195.4 4.7 3
      vertex 195.4 4.7 0
    endloop
  endfacet
  facet normal 0 1 -0
    outer loop
      vertex 190.7 126.6 0
      vertex 4.7 126.6 3
      vertex 190.7 126.6 3
    endloop
  endfacet
  facet normal 0 1 0
    outer loop
      vertex 4.7 126.6 3
      vertex 190.7 126.6 0
      vertex 4.7 126.6 0
    endloop
  endfacet
  facet normal 0 0 1
    outer loop
      vertex 190.7 126.6 3
      vertex 195.4 121.9 3
      vertex 195.36 122.513 3
    endloop
  endfacet
  facet normal 0 0 1
    outer loop
      vertex 195.4 121.9 3
      vertex 146.7 117.7 3
      vertex 195.4 4.7 3
    endloop
  endfacet
  facet normal 0 0 1
    outer loop
      vertex 190.7 126.6 3
      vertex 195.36 122.513 3
      vertex 195.24 123.116 3
    endloop
  endfacet
  facet normal 0 -0 1
    outer loop
      vertex 147.7 4.1 3
      vertex 195.4 4.7 3
      vertex 146.7 117.7 3
    endloop
  endfacet
  facet normal 0 0 1
    outer loop
      vertex 190.7 126.6 3
      vertex 195.24 123.116 3
      vertex 195.042 123.699 3
    endloop
  endfacet
  facet normal 0 -0 1
    outer loop
      vertex 190.7 2.86102e-06 3
      vertex 195.4 4.7 3
      vertex 147.7 4.1 3
    endloop
  endfacet
  facet normal 0 0 1
    outer loop
      vertex 190.7 126.6 3
      vertex 195.042 123.699 3
      vertex 194.77 124.25 3
    endloop
  endfacet
  facet normal 0 0 1
    outer loop
      vertex 195.4 4.7 3
      vertex 190.7 2.86102e-06 3
      vertex 195.36 4.08652 3
    endloop
  endfacet
  facet normal 0 0 1
    outer loop
      vertex 190.7 126.6 3
      vertex 194.77 124.25 3
      vertex 194.429 124.761 3
    endloop
  endfacet
  facet normal 0 0 1
    outer loop
      vertex 195.36 4.08652 3
      vertex 190.7 2.86102e-06 3
      vertex 195.24 3.48355 3
    endloop
  endfacet
  facet normal 0 0 1
    outer loop
      vertex 190.7 126.6 3
      vertex 194.429 124.761 3
      vertex 194.023 125.223 3
    endloop
  endfacet
  facet normal 0 0 1
    outer loop
      vertex 195.24 3.48355 3
      vertex 190.7 2.86102e-06 3
      vertex 195.042 2.90139 3
    endloop
  endfacet
  facet normal 0 0 1
    outer loop
      vertex 190.7 126.6 3
      vertex 194.023 125.223 3
      vertex 193.561 125.629 3
    endloop
  endfacet
  facet normal 0 0 1
    outer loop
      vertex 195.042 2.90139 3
      vertex 190.7 2.86102e-06 3
      vertex 194.77 2.34999 3
    endloop
  endfacet
  facet normal 0 0 1
    outer loop
      vertex 190.7 126.6 3
      vertex 193.561 125.629 3
      vertex 193.05 125.97 3
    endloop
  endfacet
  facet normal 0 0 1
    outer loop
      vertex 194.77 2.34999 3
      vertex 190.7 2.86102e-06 3
      vertex 194.429 1.83882 3
    endloop
  endfacet
  facet normal 0 0 1
    outer loop
      vertex 190.7 126.6 3
      vertex 193.05 125.97 3
      vertex 192.499 126.242 3
    endloop
  endfacet
  facet normal 0 0 1
    outer loop
      vertex 194.429 1.83882 3
      vertex 190.7 2.86102e-06 3
      vertex 194.023 1.37661 3
    endloop
  endfacet
  facet normal 0 0 1
    outer loop
      vertex 190.7 126.6 3
      vertex 192.499 126.242 3
      vertex 191.916 126.44 3
    endloop
  endfacet
  facet normal 0 0 1
    outer loop
      vertex 195.4 121.9 3
      vertex 190.7 126.6 3
      vertex 146.7 117.7 3
    endloop
  endfacet
  facet normal 0 0 1
    outer loop
      vertex 190.7 126.6 3
      vertex 191.916 126.44 3
      vertex 191.313 126.56 3
    endloop
  endfacet
  facet normal 0 0 1
    outer loop
      vertex 193.561 0.97124 3
      vertex 190.7 2.86102e-06 3
      vertex 193.05 0.629687 3
    endloop
  endfacet
  facet normal 0 0 1
    outer loop
      vertex 192.499 0.35776 3
      vertex 190.7 2.86102e-06 3
      vertex 191.916 0.160144 3
    endloop
  endfacet
  facet normal 0 0 1
    outer loop
      vertex 191.916 0.160144 3
      vertex 190.7 2.86102e-06 3
      vertex 191.313 0.0402098 3
    endloop
  endfacet
  facet normal 0 0 1
    outer loop
      vertex 193.05 0.629687 3
      vertex 190.7 2.86102e-06 3
      vertex 192.499 0.35776 3
    endloop
  endfacet
  facet normal 0 0 1
    outer loop
      vertex 146.7 117.7 3
      vertex 190.7 126.6 3
      vertex 146.7 119.7 3
    endloop
  endfacet
  facet normal 0 0 1
    outer loop
      vertex 190.7 126.6 3
      vertex 138.7 119.7 3
      vertex 146.7 119.7 3
    endloop
  endfacet
  facet normal 0 0 1
    outer loop
      vertex 97.7 78.3 3
      vertex 138.7 117.7 3
      vertex 138.7 119.7 3
    endloop
  endfacet
  facet normal -0 0 1
    outer loop
      vertex 112.572 61.3421 3
      vertex 137.7 4.1 3
      vertex 112.7 63.3 3
    endloop
  endfacet
  facet normal 0 0 1
    outer loop
      vertex 138.7 117.7 3
      vertex 112.7 63.3 3
      vertex 137.7 4.1 3
    endloop
  endfacet
  facet normal 0 0 1
    outer loop
      vertex 138.7 117.7 3
      vertex 112.572 65.2579 3
      vertex 112.7 63.3 3
    endloop
  endfacet
  facet normal 0 0 1
    outer loop
      vertex 138.7 117.7 3
      vertex 112.189 67.1823 3
      vertex 112.572 65.2579 3
    endloop
  endfacet
  facet normal 0 0 1
    outer loop
      vertex 138.7 117.7 3
      vertex 111.558 69.0403 3
      vertex 112.189 67.1823 3
    endloop
  endfacet
  facet normal 0 0 1
    outer loop
      vertex 138.7 117.7 3
      vertex 110.69 70.8 3
      vertex 111.558 69.0403 3
    endloop
  endfacet
  facet normal 0 0 1
    outer loop
      vertex 138.7 117.7 3
      vertex 109.6 72.4314 3
      vertex 110.69 70.8 3
    endloop
  endfacet
  facet normal 0 0 1
    outer loop
      vertex 138.7 117.7 3
      vertex 108.307 73.9066 3
      vertex 109.6 72.4314 3
    endloop
  endfacet
  facet normal 0 0 1
    outer loop
      vertex 138.7 117.7 3
      vertex 106.831 75.2003 3
      vertex 108.307 73.9066 3
    endloop
  endfacet
  facet normal 0 0 1
    outer loop
      vertex 138.7 117.7 3
      vertex 105.2 76.2904 3
      vertex 106.831 75.2003 3
    endloop
  endfacet
  facet normal 0 0 1
    outer loop
      vertex 138.7 117.7 3
      vertex 103.44 77.1582 3
      vertex 105.2 76.2904 3
    endloop
  endfacet
  facet normal 0 0 1
    outer loop
      vertex 138.7 117.7 3
      vertex 101.582 77.7889 3
      vertex 103.44 77.1582 3
    endloop
  endfacet
  facet normal 0 0 1
    outer loop
      vertex 138.7 117.7 3
      vertex 99.6579 78.1717 3
      vertex 101.582 77.7889 3
    endloop
  endfacet
  facet normal 0 0 1
    outer loop
      vertex 138.7 117.7 3
      vertex 97.7 78.3 3
      vertex 99.6579 78.1717 3
    endloop
  endfacet
  facet normal -0 0 1
    outer loop
      vertex 56.7 119.7 3
      vertex 97.7 78.3 3
      vertex 138.7 119.7 3
    endloop
  endfacet
  facet normal -0 0 1
    outer loop
      vertex 56.7 117.7 3
      vertex 97.7 78.3 3
      vertex 56.7 119.7 3
    endloop
  endfacet
  facet normal 0 0 1
    outer loop
      vertex 95.7421 78.1717 3
      vertex 56.7 117.7 3
      vertex 93.8177 77.7889 3
    endloop
  endfacet
  facet normal 0 0 1
    outer loop
      vertex 93.8177 77.7889 3
      vertex 56.7 117.7 3
      vertex 91.9597 77.1582 3
    endloop
  endfacet
  facet normal 0 0 1
    outer loop
      vertex 91.9597 77.1582 3
      vertex 56.7 117.7 3
      vertex 90.2 76.2904 3
    endloop
  endfacet
  facet normal 0 0 1
    outer loop
      vertex 90.2 76.2904 3
      vertex 56.7 117.7 3
      vertex 88.5686 75.2003 3
    endloop
  endfacet
  facet normal 0 0 1
    outer loop
      vertex 48.7 117.7 3
      vertex 82.7 63.3 3
      vertex 82.8283 65.2579 3
    endloop
  endfacet
  facet normal 0 0 1
    outer loop
      vertex 48.7 117.7 3
      vertex 82.8283 65.2579 3
      vertex 83.2111 67.1823 3
    endloop
  endfacet
  facet normal 0 0 1
    outer loop
      vertex 48.7 117.7 3
      vertex 83.2111 67.1823 3
      vertex 83.8418 69.0403 3
    endloop
  endfacet
  facet normal 0 0 1
    outer loop
      vertex 84.7096 70.8 3
      vertex 56.7 117.7 3
      vertex 83.8418 69.0403 3
    endloop
  endfacet
  facet normal 0 0 1
    outer loop
      vertex 85.7997 72.4314 3
      vertex 56.7 117.7 3
      vertex 84.7096 70.8 3
    endloop
  endfacet
  facet normal 0 0 1
    outer loop
      vertex 87.0934 73.9066 3
      vertex 56.7 117.7 3
      vertex 85.7997 72.4314 3
    endloop
  endfacet
  facet normal 0 0 1
    outer loop
      vertex 88.5686 75.2003 3
      vertex 56.7 117.7 3
      vertex 87.0934 73.9066 3
    endloop
  endfacet
  facet normal 0 0 1
    outer loop
      vertex 97.7 78.3 3
      vertex 56.7 117.7 3
      vertex 95.7421 78.1717 3
    endloop
  endfacet
  facet normal 0 0 1
    outer loop
      vertex 190.7 126.6 3
      vertex 56.7 119.7 3
      vertex 138.7 119.7 3
    endloop
  endfacet
  facet normal -0 0 1
    outer loop
      vertex 4.7 126.6 3
      vertex 56.7 119.7 3
      vertex 190.7 126.6 3
    endloop
  endfacet
  facet normal 0 0 1
    outer loop
      vertex 4.7 126.6 3
      vertex 48.7 117.7 3
      vertex 48.7 119.7 3
    endloop
  endfacet
  facet normal 0 0 1
    outer loop
      vertex 48.7 117.7 3
      vertex 2.86102e-06 121.9 3
      vertex 2.86102e-06 4.7 3
    endloop
  endfacet
  facet normal 0 0 1
    outer loop
      vertex 48.7 117.7 3
      vertex 4.7 126.6 3
      vertex 2.86102e-06 121.9 3
    endloop
  endfacet
  facet normal 0 0 1
    outer loop
      vertex 56.7 119.7 3
      vertex 4.7 126.6 3
      vertex 48.7 119.7 3
    endloop
  endfacet
  facet normal -0 0 1
    outer loop
      vertex 147.7 1.1 3
      vertex 190.7 2.86102e-06 3
      vertex 147.7 4.1 3
    endloop
  endfacet
  facet normal -0 0 1
    outer loop
      vertex 137.7 1.1 3
      vertex 190.7 2.86102e-06 3
      vertex 147.7 1.1 3
    endloop
  endfacet
  facet normal -0 0 1
    outer loop
      vertex 112.189 59.4177 3
      vertex 137.7 4.1 3
      vertex 112.572 61.3421 3
    endloop
  endfacet
  facet normal -0 0 1
    outer loop
      vertex 111.558 57.5597 3
      vertex 137.7 4.1 3
      vertex 112.189 59.4177 3
    endloop
  endfacet
  facet normal -0 0 1
    outer loop
      vertex 110.69 55.8 3
      vertex 137.7 4.1 3
      vertex 111.558 57.5597 3
    endloop
  endfacet
  facet normal -0 0 1
    outer loop
      vertex 109.6 54.1686 3
      vertex 137.7 4.1 3
      vertex 110.69 55.8 3
    endloop
  endfacet
  facet normal -0 0 1
    outer loop
      vertex 108.307 52.6934 3
      vertex 137.7 4.1 3
      vertex 109.6 54.1686 3
    endloop
  endfacet
  facet normal -0 0 1
    outer loop
      vertex 106.831 51.3997 3
      vertex 137.7 4.1 3
      vertex 108.307 52.6934 3
    endloop
  endfacet
  facet normal -0 0 1
    outer loop
      vertex 105.2 50.3096 3
      vertex 137.7 4.1 3
      vertex 106.831 51.3997 3
    endloop
  endfacet
  facet normal -0 0 1
    outer loop
      vertex 103.44 49.4418 3
      vertex 137.7 4.1 3
      vertex 105.2 50.3096 3
    endloop
  endfacet
  facet normal -0 0 1
    outer loop
      vertex 101.582 48.8111 3
      vertex 137.7 4.1 3
      vertex 103.44 49.4418 3
    endloop
  endfacet
  facet normal -0 0 1
    outer loop
      vertex 99.6579 48.4283 3
      vertex 137.7 4.1 3
      vertex 101.582 48.8111 3
    endloop
  endfacet
  facet normal -0 0 1
    outer loop
      vertex 97.7 48.3 3
      vertex 137.7 4.1 3
      vertex 99.6579 48.4283 3
    endloop
  endfacet
  facet normal 0 0 1
    outer loop
      vertex 57.7 4.1 3
      vertex 137.7 4.1 3
      vertex 97.7 48.3 3
    endloop
  endfacet
  facet normal 0 0 1
    outer loop
      vertex 57.7 4.1 3
      vertex 97.7 48.3 3
      vertex 95.7421 48.4283 3
    endloop
  endfacet
  facet normal 0 0 1
    outer loop
      vertex 57.7 4.1 3
      vertex 95.7421 48.4283 3
      vertex 93.8177 48.8111 3
    endloop
  endfacet
  facet normal 0 0 1
    outer loop
      vertex 57.7 4.1 3
      vertex 93.8177 48.8111 3
      vertex 91.9597 49.4418 3
    endloop
  endfacet
  facet normal 0 0 1
    outer loop
      vertex 57.7 4.1 3
      vertex 91.9597 49.4418 3
      vertex 90.2 50.3096 3
    endloop
  endfacet
  facet normal 0 0 1
    outer loop
      vertex 57.7 4.1 3
      vertex 90.2 50.3096 3
      vertex 88.5686 51.3997 3
    endloop
  endfacet
  facet normal 0 0 1
    outer loop
      vertex 57.7 4.1 3
      vertex 88.5686 51.3997 3
      vertex 87.0934 52.6934 3
    endloop
  endfacet
  facet normal 0 0 1
    outer loop
      vertex 57.7 4.1 3
      vertex 82.8283 61.3421 3
      vertex 82.7 63.3 3
    endloop
  endfacet
  facet normal 0 0 1
    outer loop
      vertex 57.7 4.1 3
      vertex 83.2111 59.4177 3
      vertex 82.8283 61.3421 3
    endloop
  endfacet
  facet normal 0 0 1
    outer loop
      vertex 57.7 4.1 3
      vertex 83.8418 57.5597 3
      vertex 83.2111 59.4177 3
    endloop
  endfacet
  facet normal 0 0 1
    outer loop
      vertex 57.7 4.1 3
      vertex 84.7096 55.8 3
      vertex 83.8418 57.5597 3
    endloop
  endfacet
  facet normal 0 0 1
    outer loop
      vertex 57.7 4.1 3
      vertex 85.7997 54.1686 3
      vertex 84.7096 55.8 3
    endloop
  endfacet
  facet normal 0 0 1
    outer loop
      vertex 57.7 4.1 3
      vertex 87.0934 52.6934 3
      vertex 85.7997 54.1686 3
    endloop
  endfacet
  facet normal 0 0 1
    outer loop
      vertex 137.7 4.1 3
      vertex 57.7 4.1 3
      vertex 137.7 1.1 3
    endloop
  endfacet
  facet normal 0 0 1
    outer loop
      vertex 57.7 1.1 3
      vertex 137.7 1.1 3
      vertex 57.7 4.1 3
    endloop
  endfacet
  facet normal -0 0 1
    outer loop
      vertex 57.7 1.1 3
      vertex 190.7 2.86102e-06 3
      vertex 137.7 1.1 3
    endloop
  endfacet
  facet normal 0 0 1
    outer loop
      vertex 4.7 2.86102e-06 3
      vertex 57.7 1.1 3
      vertex 47.7 1.1 3
    endloop
  endfacet
  facet normal 0 0 1
    outer loop
      vertex 57.7 1.1 3
      vertex 4.7 2.86102e-06 3
      vertex 190.7 2.86102e-06 3
    endloop
  endfacet
  facet normal 0 0 1
    outer loop
      vertex 82.7 63.3 3
      vertex 2.86102e-06 4.7 3
      vertex 47.7 4.1 3
    endloop
  endfacet
  facet normal 0 0 1
    outer loop
      vertex 2.86102e-06 121.9 3
      vertex 4.7 126.6 3
      vertex 4.08652 126.56 3
    endloop
  endfacet
  facet normal 0 -0 1
    outer loop
      vertex 4.7 2.86102e-06 3
      vertex 47.7 4.1 3
      vertex 2.86102e-06 4.7 3
    endloop
  endfacet
  facet normal 0 0 1
    outer loop
      vertex 2.86102e-06 121.9 3
      vertex 4.08652 126.56 3
      vertex 3.48355 126.44 3
    endloop
  endfacet
  facet normal 0 0 1
    outer loop
      vertex 47.7 4.1 3
      vertex 4.7 2.86102e-06 3
      vertex 47.7 1.1 3
    endloop
  endfacet
  facet normal 0 0 1
    outer loop
      vertex 2.86102e-06 121.9 3
      vertex 3.48355 126.44 3
      vertex 2.90139 126.242 3
    endloop
  endfacet
  facet normal 0 0 1
    outer loop
      vertex 4.7 2.86102e-06 3
      vertex 2.86102e-06 4.7 3
      vertex 4.08652 0.0402098 3
    endloop
  endfacet
  facet normal 0 0 1
    outer loop
      vertex 2.86102e-06 121.9 3
      vertex 2.90139 126.242 3
      vertex 2.34999 125.97 3
    endloop
  endfacet
  facet normal 0 0 1
    outer loop
      vertex 4.08652 0.0402098 3
      vertex 2.86102e-06 4.7 3
      vertex 3.48355 0.160144 3
    endloop
  endfacet
  facet normal 0 0 1
    outer loop
      vertex 2.86102e-06 121.9 3
      vertex 2.34999 125.97 3
      vertex 1.83882 125.629 3
    endloop
  endfacet
  facet normal 0 0 1
    outer loop
      vertex 3.48355 0.160144 3
      vertex 2.86102e-06 4.7 3
      vertex 2.90139 0.35776 3
    endloop
  endfacet
  facet normal 0 0 1
    outer loop
      vertex 2.86102e-06 121.9 3
      vertex 1.83882 125.629 3
      vertex 1.37661 125.223 3
    endloop
  endfacet
  facet normal 0 0 1
    outer loop
      vertex 2.90139 0.35776 3
      vertex 2.86102e-06 4.7 3
      vertex 2.34999 0.629687 3
    endloop
  endfacet
  facet normal 0 0 1
    outer loop
      vertex 2.86102e-06 121.9 3
      vertex 1.37661 125.223 3
      vertex 0.97124 124.761 3
    endloop
  endfacet
  facet normal 0 0 1
    outer loop
      vertex 2.34999 0.629687 3
      vertex 2.86102e-06 4.7 3
      vertex 1.83882 0.97124 3
    endloop
  endfacet
  facet normal 0 0 1
    outer loop
      vertex 2.86102e-06 121.9 3
      vertex 0.97124 124.761 3
      vertex 0.629687 124.25 3
    endloop
  endfacet
  facet normal 0 0 1
    outer loop
      vertex 1.83882 0.97124 3
      vertex 2.86102e-06 4.7 3
      vertex 1.37661 1.37661 3
    endloop
  endfacet
  facet normal 0 0 1
    outer loop
      vertex 2.86102e-06 121.9 3
      vertex 0.629687 124.25 3
      vertex 0.35776 123.699 3
    endloop
  endfacet
  facet normal 0 0 1
    outer loop
      vertex 1.37661 1.37661 3
      vertex 2.86102e-06 4.7 3
      vertex 0.97124 1.83882 3
    endloop
  endfacet
  facet normal 0 0 1
    outer loop
      vertex 2.86102e-06 121.9 3
      vertex 0.35776 123.699 3
      vertex 0.160144 123.116 3
    endloop
  endfacet
  facet normal 0 0 1
    outer loop
      vertex 0.97124 1.83882 3
      vertex 2.86102e-06 4.7 3
      vertex 0.629687 2.34999 3
    endloop
  endfacet
  facet normal 0 0 1
    outer loop
      vertex 2.86102e-06 121.9 3
      vertex 0.160144 123.116 3
      vertex 0.0402098 122.513 3
    endloop
  endfacet
  facet normal 0 0 1
    outer loop
      vertex 0.629687 2.34999 3
      vertex 2.86102e-06 4.7 3
      vertex 0.35776 2.90139 3
    endloop
  endfacet
  facet normal 0 0 1
    outer loop
      vertex 0.35776 2.90139 3
      vertex 2.86102e-06 4.7 3
      vertex 0.160144 3.48355 3
    endloop
  endfacet
  facet normal 0 0 1
    outer loop
      vertex 0.160144 3.48355 3
      vertex 2.86102e-06 4.7 3
      vertex 0.0402098 4.08652 3
    endloop
  endfacet
  facet normal 0 0 1
    outer loop
      vertex 194.023 1.37661 3
      vertex 190.7 2.86102e-06 3
      vertex 193.561 0.97124 3
    endloop
  endfacet
  facet normal -0 0 1
    outer loop
      vertex 138.7 117.7 3
      vertex 147.7 4.1 3
      vertex 146.7 117.7 3
    endloop
  endfacet
  facet normal 0 0 1
    outer loop
      vertex 147.7 4.1 3
      vertex 138.7 117.7 3
      vertex 137.7 4.1 3
    endloop
  endfacet
  facet normal -0 0 1
    outer loop
      vertex 48.7 117.7 3
      vertex 83.8418 69.0403 3
      vertex 56.7 117.7 3
    endloop
  endfacet
  facet normal 0 0 1
    outer loop
      vertex 82.7 63.3 3
      vertex 48.7 117.7 3
      vertex 2.86102e-06 4.7 3
    endloop
  endfacet
  facet normal 0 0 1
    outer loop
      vertex 82.7 63.3 3
      vertex 47.7 4.1 3
      vertex 57.7 4.1 3
    endloop
  endfacet
  facet normal -0.195084 -0.980787 0
    outer loop
      vertex 3.48355 0.160144 0
      vertex 4.08652 0.0402098 3
      vertex 3.48355 0.160144 3
    endloop
  endfacet
  facet normal -0.195084 -0.980787 -0
    outer loop
      vertex 4.08652 0.0402098 3
      vertex 3.48355 0.160144 0
      vertex 4.08652 0.0402098 0
    endloop
  endfacet
  facet normal 0.980766 -0.195187 0
    outer loop
      vertex 195.24 3.48355 3
      vertex 195.36 4.08652 0
      vertex 195.36 4.08652 3
    endloop
  endfacet
  facet normal 0.980766 -0.195187 0
    outer loop
      vertex 195.36 4.08652 0
      vertex 195.24 3.48355 3
      vertex 195.24 3.48355 0
    endloop
  endfacet
  facet normal -0.321438 -0.94693 0
    outer loop
      vertex 2.90139 0.35776 0
      vertex 3.48355 0.160144 3
      vertex 2.90139 0.35776 3
    endloop
  endfacet
  facet normal -0.321438 -0.94693 -0
    outer loop
      vertex 3.48355 0.160144 3
      vertex 2.90139 0.35776 0
      vertex 3.48355 0.160144 0
    endloop
  endfacet
  facet normal 0.442556 -0.896741 0
    outer loop
      vertex 192.499 0.35776 0
      vertex 193.05 0.629687 3
      vertex 192.499 0.35776 3
    endloop
  endfacet
  facet normal 0.442556 -0.896741 0
    outer loop
      vertex 193.05 0.629687 3
      vertex 192.499 0.35776 0
      vertex 193.05 0.629687 0
    endloop
  endfacet
  facet normal 0.831885 -0.554948 0
    outer loop
      vertex 194.429 1.83882 3
      vertex 194.77 2.34999 0
      vertex 194.77 2.34999 3
    endloop
  endfacet
  facet normal 0.831885 -0.554948 0
    outer loop
      vertex 194.77 2.34999 0
      vertex 194.429 1.83882 3
      vertex 194.429 1.83882 0
    endloop
  endfacet
  facet normal 0.0654498 -0.997856 0
    outer loop
      vertex 190.7 2.86102e-06 0
      vertex 191.313 0.0402098 3
      vertex 190.7 2.86102e-06 3
    endloop
  endfacet
  facet normal 0.0654498 -0.997856 0
    outer loop
      vertex 191.313 0.0402098 3
      vertex 190.7 2.86102e-06 0
      vertex 191.313 0.0402098 0
    endloop
  endfacet
  facet normal -0.831384 0.555698 0
    outer loop
      vertex 0.629687 124.25 0
      vertex 0.97124 124.761 3
      vertex 0.97124 124.761 0
    endloop
  endfacet
  facet normal -0.831384 0.555698 0
    outer loop
      vertex 0.97124 124.761 3
      vertex 0.629687 124.25 0
      vertex 0.629687 124.25 3
    endloop
  endfacet
  facet normal 0.94674 -0.321998 0
    outer loop
      vertex 195.042 2.90139 3
      vertex 195.24 3.48355 0
      vertex 195.24 3.48355 3
    endloop
  endfacet
  facet normal 0.94674 -0.321998 0
    outer loop
      vertex 195.24 3.48355 0
      vertex 195.042 2.90139 3
      vertex 195.042 2.90139 0
    endloop
  endfacet
  facet normal -0.997859 -0.0653988 0
    outer loop
      vertex 0.0402098 4.08652 0
      vertex 2.86102e-06 4.7 3
      vertex 2.86102e-06 4.7 0
    endloop
  endfacet
  facet normal -0.997859 -0.0653988 0
    outer loop
      vertex 2.86102e-06 4.7 3
      vertex 0.0402098 4.08652 0
      vertex 0.0402098 4.08652 3
    endloop
  endfacet
  facet normal 0.751165 0.660115 0
    outer loop
      vertex 194.429 124.761 3
      vertex 194.023 125.223 0
      vertex 194.023 125.223 3
    endloop
  endfacet
  facet normal 0.751165 0.660115 0
    outer loop
      vertex 194.023 125.223 0
      vertex 194.429 124.761 3
      vertex 194.429 124.761 0
    endloop
  endfacet
  facet normal 0.195075 -0.980788 0
    outer loop
      vertex 191.313 0.0402098 0
      vertex 191.916 0.160144 3
      vertex 191.313 0.0402098 3
    endloop
  endfacet
  facet normal 0.195075 -0.980788 0
    outer loop
      vertex 191.916 0.160144 3
      vertex 191.313 0.0402098 0
      vertex 191.916 0.160144 0
    endloop
  endfacet
  facet normal -0.94693 -0.321438 0
    outer loop
      vertex 0.35776 2.90139 0
      vertex 0.160144 3.48355 3
      vertex 0.160144 3.48355 0
    endloop
  endfacet
  facet normal -0.94693 -0.321438 0
    outer loop
      vertex 0.160144 3.48355 3
      vertex 0.35776 2.90139 0
      vertex 0.35776 2.90139 3
    endloop
  endfacet
  facet normal -0.751673 0.659536 0
    outer loop
      vertex 0.97124 124.761 0
      vertex 1.37661 125.223 3
      vertex 1.37661 125.223 0
    endloop
  endfacet
  facet normal -0.751673 0.659536 0
    outer loop
      vertex 1.37661 125.223 3
      vertex 0.97124 124.761 0
      vertex 0.97124 124.761 3
    endloop
  endfacet
  facet normal -0.896868 -0.442297 0
    outer loop
      vertex 0.629687 2.34999 0
      vertex 0.35776 2.90139 3
      vertex 0.35776 2.90139 0
    endloop
  endfacet
  facet normal -0.896868 -0.442297 0
    outer loop
      vertex 0.35776 2.90139 3
      vertex 0.629687 2.34999 0
      vertex 0.629687 2.34999 3
    endloop
  endfacet
  facet normal 0.555698 -0.831384 0
    outer loop
      vertex 193.05 0.629687 0
      vertex 193.561 0.97124 3
      vertex 193.05 0.629687 3
    endloop
  endfacet
  facet normal 0.555698 -0.831384 0
    outer loop
      vertex 193.561 0.97124 3
      vertex 193.05 0.629687 0
      vertex 193.561 0.97124 0
    endloop
  endfacet
  facet normal 0.8318 0.555076 0
    outer loop
      vertex 194.77 124.25 3
      vertex 194.429 124.761 0
      vertex 194.429 124.761 3
    endloop
  endfacet
  facet normal 0.8318 0.555076 0
    outer loop
      vertex 194.429 124.761 0
      vertex 194.77 124.25 3
      vertex 194.77 124.25 0
    endloop
  endfacet
  facet normal -0.659367 -0.751821 0
    outer loop
      vertex 1.37661 1.37661 0
      vertex 1.83882 0.97124 3
      vertex 1.37661 1.37661 3
    endloop
  endfacet
  facet normal -0.659367 -0.751821 -0
    outer loop
      vertex 1.83882 0.97124 3
      vertex 1.37661 1.37661 0
      vertex 1.83882 0.97124 0
    endloop
  endfacet
  facet normal 0.0651144 0.997878 -0
    outer loop
      vertex 191.313 126.56 0
      vertex 190.7 126.6 3
      vertex 191.313 126.56 3
    endloop
  endfacet
  facet normal 0.0651144 0.997878 0
    outer loop
      vertex 190.7 126.6 3
      vertex 191.313 126.56 0
      vertex 190.7 126.6 0
    endloop
  endfacet
  facet normal -0.980787 -0.195084 0
    outer loop
      vertex 0.160144 3.48355 0
      vertex 0.0402098 4.08652 3
      vertex 0.0402098 4.08652 0
    endloop
  endfacet
  facet normal -0.980787 -0.195084 0
    outer loop
      vertex 0.0402098 4.08652 3
      vertex 0.160144 3.48355 0
      vertex 0.160144 3.48355 3
    endloop
  endfacet
  facet normal -0.997856 0.0654498 0
    outer loop
      vertex 2.86102e-06 121.9 0
      vertex 0.0402098 122.513 3
      vertex 0.0402098 122.513 0
    endloop
  endfacet
  facet normal -0.997856 0.0654498 0
    outer loop
      vertex 0.0402098 122.513 3
      vertex 2.86102e-06 121.9 0
      vertex 2.86102e-06 121.9 3
    endloop
  endfacet
  facet normal -0.896741 0.442556 0
    outer loop
      vertex 0.35776 123.699 0
      vertex 0.629687 124.25 3
      vertex 0.629687 124.25 0
    endloop
  endfacet
  facet normal -0.896741 0.442556 0
    outer loop
      vertex 0.629687 124.25 3
      vertex 0.35776 123.699 0
      vertex 0.35776 123.699 3
    endloop
  endfacet
  facet normal 0.896821 -0.442393 0
    outer loop
      vertex 194.77 2.34999 3
      vertex 195.042 2.90139 0
      vertex 195.042 2.90139 3
    endloop
  endfacet
  facet normal 0.896821 -0.442393 0
    outer loop
      vertex 195.042 2.90139 0
      vertex 194.77 2.34999 3
      vertex 194.77 2.34999 0
    endloop
  endfacet
  facet normal 0.980768 0.195178 0
    outer loop
      vertex 195.36 122.513 3
      vertex 195.24 123.116 0
      vertex 195.24 123.116 3
    endloop
  endfacet
  facet normal 0.980768 0.195178 0
    outer loop
      vertex 195.24 123.116 0
      vertex 195.36 122.513 3
      vertex 195.36 122.513 0
    endloop
  endfacet
  facet normal 0.997878 0.0651144 0
    outer loop
      vertex 195.4 121.9 3
      vertex 195.36 122.513 0
      vertex 195.36 122.513 3
    endloop
  endfacet
  facet normal 0.997878 0.0651144 0
    outer loop
      vertex 195.36 122.513 0
      vertex 195.4 121.9 3
      vertex 195.4 121.9 0
    endloop
  endfacet
  facet normal 0.660115 0.751165 -0
    outer loop
      vertex 194.023 125.223 0
      vertex 193.561 125.629 3
      vertex 194.023 125.223 3
    endloop
  endfacet
  facet normal 0.660115 0.751165 0
    outer loop
      vertex 193.561 125.629 3
      vertex 194.023 125.223 0
      vertex 193.561 125.629 0
    endloop
  endfacet
  facet normal 0 0 -1
    outer loop
      vertex 190.7 2.86102e-06 0
      vertex 195.4 4.7 0
      vertex 195.36 4.08652 0
    endloop
  endfacet
  facet normal 0 0 -1
    outer loop
      vertex 195.4 4.7 0
      vertex 112.7 63.3 0
      vertex 195.4 121.9 0
    endloop
  endfacet
  facet normal 0 0 -1
    outer loop
      vertex 190.7 2.86102e-06 0
      vertex 195.36 4.08652 0
      vertex 195.24 3.48355 0
    endloop
  endfacet
  facet normal 0 0 -1
    outer loop
      vertex 112.572 65.2579 0
      vertex 195.4 121.9 0
      vertex 112.7 63.3 0
    endloop
  endfacet
  facet normal 0 0 -1
    outer loop
      vertex 190.7 2.86102e-06 0
      vertex 195.24 3.48355 0
      vertex 195.042 2.90139 0
    endloop
  endfacet
  facet normal 0 0 -1
    outer loop
      vertex 112.189 67.1823 0
      vertex 195.4 121.9 0
      vertex 112.572 65.2579 0
    endloop
  endfacet
  facet normal 0 0 -1
    outer loop
      vertex 190.7 2.86102e-06 0
      vertex 195.042 2.90139 0
      vertex 194.77 2.34999 0
    endloop
  endfacet
  facet normal 0 0 -1
    outer loop
      vertex 111.558 69.0403 0
      vertex 195.4 121.9 0
      vertex 112.189 67.1823 0
    endloop
  endfacet
  facet normal 0 0 -1
    outer loop
      vertex 190.7 2.86102e-06 0
      vertex 194.77 2.34999 0
      vertex 194.429 1.83882 0
    endloop
  endfacet
  facet normal 0 -0 -1
    outer loop
      vertex 190.7 126.6 0
      vertex 195.4 121.9 0
      vertex 111.558 69.0403 0
    endloop
  endfacet
  facet normal 0 0 -1
    outer loop
      vertex 190.7 2.86102e-06 0
      vertex 194.429 1.83882 0
      vertex 194.023 1.37661 0
    endloop
  endfacet
  facet normal 0 0 -1
    outer loop
      vertex 195.36 122.513 0
      vertex 190.7 126.6 0
      vertex 195.24 123.116 0
    endloop
  endfacet
  facet normal 0 0 -1
    outer loop
      vertex 190.7 2.86102e-06 0
      vertex 194.023 1.37661 0
      vertex 193.561 0.97124 0
    endloop
  endfacet
  facet normal 0 0 -1
    outer loop
      vertex 195.24 123.116 0
      vertex 190.7 126.6 0
      vertex 195.042 123.699 0
    endloop
  endfacet
  facet normal 0 0 -1
    outer loop
      vertex 190.7 2.86102e-06 0
      vertex 193.561 0.97124 0
      vertex 193.05 0.629687 0
    endloop
  endfacet
  facet normal 0 0 -1
    outer loop
      vertex 194.77 124.25 0
      vertex 190.7 126.6 0
      vertex 194.429 124.761 0
    endloop
  endfacet
  facet normal 0 0 -1
    outer loop
      vertex 190.7 2.86102e-06 0
      vertex 193.05 0.629687 0
      vertex 192.499 0.35776 0
    endloop
  endfacet
  facet normal -0 0 -1
    outer loop
      vertex 195.4 4.7 0
      vertex 190.7 2.86102e-06 0
      vertex 111.558 57.5597 0
    endloop
  endfacet
  facet normal 0 0 -1
    outer loop
      vertex 190.7 2.86102e-06 0
      vertex 192.499 0.35776 0
      vertex 191.916 0.160144 0
    endloop
  endfacet
  facet normal 0 0 -1
    outer loop
      vertex 194.429 124.761 0
      vertex 190.7 126.6 0
      vertex 194.023 125.223 0
    endloop
  endfacet
  facet normal 0 0 -1
    outer loop
      vertex 190.7 2.86102e-06 0
      vertex 191.916 0.160144 0
      vertex 191.313 0.0402098 0
    endloop
  endfacet
  facet normal 0 0 -1
    outer loop
      vertex 193.05 125.97 0
      vertex 190.7 126.6 0
      vertex 192.499 126.242 0
    endloop
  endfacet
  facet normal 0 0 -1
    outer loop
      vertex 192.499 126.242 0
      vertex 190.7 126.6 0
      vertex 191.916 126.44 0
    endloop
  endfacet
  facet normal 0 0 -1
    outer loop
      vertex 191.916 126.44 0
      vertex 190.7 126.6 0
      vertex 191.313 126.56 0
    endloop
  endfacet
  facet normal 0 0 -1
    outer loop
      vertex 193.561 125.629 0
      vertex 190.7 126.6 0
      vertex 193.05 125.97 0
    endloop
  endfacet
  facet normal 0 0 -1
    outer loop
      vertex 195.4 4.7 0
      vertex 112.572 61.3421 0
      vertex 112.7 63.3 0
    endloop
  endfacet
  facet normal 0 0 -1
    outer loop
      vertex 195.4 4.7 0
      vertex 112.189 59.4177 0
      vertex 112.572 61.3421 0
    endloop
  endfacet
  facet normal 0 0 -1
    outer loop
      vertex 195.4 4.7 0
      vertex 111.558 57.5597 0
      vertex 112.189 59.4177 0
    endloop
  endfacet
  facet normal 0 0 -1
    outer loop
      vertex 190.7 2.86102e-06 0
      vertex 110.69 55.8 0
      vertex 111.558 57.5597 0
    endloop
  endfacet
  facet normal 0 0 -1
    outer loop
      vertex 190.7 2.86102e-06 0
      vertex 109.6 54.1686 0
      vertex 110.69 55.8 0
    endloop
  endfacet
  facet normal 0 0 -1
    outer loop
      vertex 190.7 2.86102e-06 0
      vertex 108.307 52.6934 0
      vertex 109.6 54.1686 0
    endloop
  endfacet
  facet normal 0 0 -1
    outer loop
      vertex 190.7 2.86102e-06 0
      vertex 106.831 51.3997 0
      vertex 108.307 52.6934 0
    endloop
  endfacet
  facet normal 0 0 -1
    outer loop
      vertex 190.7 2.86102e-06 0
      vertex 105.2 50.3096 0
      vertex 106.831 51.3997 0
    endloop
  endfacet
  facet normal 0 0 -1
    outer loop
      vertex 190.7 2.86102e-06 0
      vertex 103.44 49.4418 0
      vertex 105.2 50.3096 0
    endloop
  endfacet
  facet normal 0 0 -1
    outer loop
      vertex 190.7 2.86102e-06 0
      vertex 101.582 48.8111 0
      vertex 103.44 49.4418 0
    endloop
  endfacet
  facet normal 0 0 -1
    outer loop
      vertex 190.7 2.86102e-06 0
      vertex 99.6579 48.4283 0
      vertex 101.582 48.8111 0
    endloop
  endfacet
  facet normal 0 0 -1
    outer loop
      vertex 190.7 2.86102e-06 0
      vertex 97.7 48.3 0
      vertex 99.6579 48.4283 0
    endloop
  endfacet
  facet normal 0 0 -1
    outer loop
      vertex 4.7 2.86102e-06 0
      vertex 97.7 48.3 0
      vertex 190.7 2.86102e-06 0
    endloop
  endfacet
  facet normal -0 0 -1
    outer loop
      vertex 97.7 48.3 0
      vertex 4.7 2.86102e-06 0
      vertex 95.7421 48.4283 0
    endloop
  endfacet
  facet normal -0 0 -1
    outer loop
      vertex 95.7421 48.4283 0
      vertex 4.7 2.86102e-06 0
      vertex 93.8177 48.8111 0
    endloop
  endfacet
  facet normal -0 0 -1
    outer loop
      vertex 93.8177 48.8111 0
      vertex 4.7 2.86102e-06 0
      vertex 91.9597 49.4418 0
    endloop
  endfacet
  facet normal -0 0 -1
    outer loop
      vertex 83.2111 59.4177 0
      vertex 2.86102e-06 4.7 0
      vertex 82.8283 61.3421 0
    endloop
  endfacet
  facet normal -0 0 -1
    outer loop
      vertex 83.8418 57.5597 0
      vertex 2.86102e-06 4.7 0
      vertex 83.2111 59.4177 0
    endloop
  endfacet
  facet normal 0 0 -1
    outer loop
      vertex 2.86102e-06 4.7 0
      vertex 83.8418 57.5597 0
      vertex 4.7 2.86102e-06 0
    endloop
  endfacet
  facet normal -0 0 -1
    outer loop
      vertex 84.7096 55.8 0
      vertex 4.7 2.86102e-06 0
      vertex 83.8418 57.5597 0
    endloop
  endfacet
  facet normal -0 0 -1
    outer loop
      vertex 85.7997 54.1686 0
      vertex 4.7 2.86102e-06 0
      vertex 84.7096 55.8 0
    endloop
  endfacet
  facet normal -0 0 -1
    outer loop
      vertex 87.0934 52.6934 0
      vertex 4.7 2.86102e-06 0
      vertex 85.7997 54.1686 0
    endloop
  endfacet
  facet normal -0 0 -1
    outer loop
      vertex 88.5686 51.3997 0
      vertex 4.7 2.86102e-06 0
      vertex 87.0934 52.6934 0
    endloop
  endfacet
  facet normal -0 0 -1
    outer loop
      vertex 90.2 50.3096 0
      vertex 4.7 2.86102e-06 0
      vertex 88.5686 51.3997 0
    endloop
  endfacet
  facet normal -0 0 -1
    outer loop
      vertex 91.9597 49.4418 0
      vertex 4.7 2.86102e-06 0
      vertex 90.2 50.3096 0
    endloop
  endfacet
  facet normal 0 0 -1
    outer loop
      vertex 194.023 125.223 0
      vertex 190.7 126.6 0
      vertex 193.561 125.629 0
    endloop
  endfacet
  facet normal 0 0 -1
    outer loop
      vertex 195.042 123.699 0
      vertex 190.7 126.6 0
      vertex 194.77 124.25 0
    endloop
  endfacet
  facet normal 0 0 -1
    outer loop
      vertex 195.4 121.9 0
      vertex 190.7 126.6 0
      vertex 195.36 122.513 0
    endloop
  endfacet
  facet normal 0 0 -1
    outer loop
      vertex 110.69 70.8 0
      vertex 190.7 126.6 0
      vertex 111.558 69.0403 0
    endloop
  endfacet
  facet normal 0 0 -1
    outer loop
      vertex 109.6 72.4314 0
      vertex 190.7 126.6 0
      vertex 110.69 70.8 0
    endloop
  endfacet
  facet normal 0 0 -1
    outer loop
      vertex 108.307 73.9066 0
      vertex 190.7 126.6 0
      vertex 109.6 72.4314 0
    endloop
  endfacet
  facet normal 0 0 -1
    outer loop
      vertex 106.831 75.2003 0
      vertex 190.7 126.6 0
      vertex 108.307 73.9066 0
    endloop
  endfacet
  facet normal 0 0 -1
    outer loop
      vertex 105.2 76.2904 0
      vertex 190.7 126.6 0
      vertex 106.831 75.2003 0
    endloop
  endfacet
  facet normal 0 0 -1
    outer loop
      vertex 103.44 77.1582 0
      vertex 190.7 126.6 0
      vertex 105.2 76.2904 0
    endloop
  endfacet
  facet normal 0 0 -1
    outer loop
      vertex 101.582 77.7889 0
      vertex 190.7 126.6 0
      vertex 103.44 77.1582 0
    endloop
  endfacet
  facet normal 0 0 -1
    outer loop
      vertex 99.6579 78.1717 0
      vertex 190.7 126.6 0
      vertex 101.582 77.7889 0
    endloop
  endfacet
  facet normal 0 0 -1
    outer loop
      vertex 97.7 78.3 0
      vertex 190.7 126.6 0
      vertex 99.6579 78.1717 0
    endloop
  endfacet
  facet normal 0 0 -1
    outer loop
      vertex 4.7 126.6 0
      vertex 97.7 78.3 0
      vertex 95.7421 78.1717 0
    endloop
  endfacet
  facet normal 0 0 -1
    outer loop
      vertex 4.7 126.6 0
      vertex 95.7421 78.1717 0
      vertex 93.8177 77.7889 0
    endloop
  endfacet
  facet normal 0 0 -1
    outer loop
      vertex 4.7 126.6 0
      vertex 93.8177 77.7889 0
      vertex 91.9597 77.1582 0
    endloop
  endfacet
  facet normal 0 0 -1
    outer loop
      vertex 4.7 126.6 0
      vertex 91.9597 77.1582 0
      vertex 90.2 76.2904 0
    endloop
  endfacet
  facet normal -0 0 -1
    outer loop
      vertex 82.8283 61.3421 0
      vertex 2.86102e-06 4.7 0
      vertex 82.7 63.3 0
    endloop
  endfacet
  facet normal 0 0 -1
    outer loop
      vertex 2.86102e-06 121.9 0
      vertex 82.7 63.3 0
      vertex 2.86102e-06 4.7 0
    endloop
  endfacet
  facet normal 0 0 -1
    outer loop
      vertex 82.7 63.3 0
      vertex 2.86102e-06 121.9 0
      vertex 82.8283 65.2579 0
    endloop
  endfacet
  facet normal 0 0 -1
    outer loop
      vertex 82.8283 65.2579 0
      vertex 2.86102e-06 121.9 0
      vertex 83.2111 67.1823 0
    endloop
  endfacet
  facet normal 0 0 -1
    outer loop
      vertex 83.2111 67.1823 0
      vertex 2.86102e-06 121.9 0
      vertex 83.8418 69.0403 0
    endloop
  endfacet
  facet normal 0 -0 -1
    outer loop
      vertex 4.7 126.6 0
      vertex 83.8418 69.0403 0
      vertex 2.86102e-06 121.9 0
    endloop
  endfacet
  facet normal 0 0 -1
    outer loop
      vertex 97.7 78.3 0
      vertex 4.7 126.6 0
      vertex 190.7 126.6 0
    endloop
  endfacet
  facet normal 0 0 -1
    outer loop
      vertex 88.5686 75.2003 0
      vertex 4.7 126.6 0
      vertex 90.2 76.2904 0
    endloop
  endfacet
  facet normal 0 0 -1
    outer loop
      vertex 87.0934 73.9066 0
      vertex 4.7 126.6 0
      vertex 88.5686 75.2003 0
    endloop
  endfacet
  facet normal 0 0 -1
    outer loop
      vertex 83.8418 69.0403 0
      vertex 4.7 126.6 0
      vertex 84.7096 70.8 0
    endloop
  endfacet
  facet normal 0 0 -1
    outer loop
      vertex 2.86102e-06 4.7 0
      vertex 4.7 2.86102e-06 0
      vertex 4.08652 0.0402098 0
    endloop
  endfacet
  facet normal 0 0 -1
    outer loop
      vertex 84.7096 70.8 0
      vertex 4.7 126.6 0
      vertex 85.7997 72.4314 0
    endloop
  endfacet
  facet normal 0 0 -1
    outer loop
      vertex 2.86102e-06 4.7 0
      vertex 4.08652 0.0402098 0
      vertex 3.48355 0.160144 0
    endloop
  endfacet
  facet normal 0 0 -1
    outer loop
      vertex 85.7997 72.4314 0
      vertex 4.7 126.6 0
      vertex 87.0934 73.9066 0
    endloop
  endfacet
  facet normal 0 0 -1
    outer loop
      vertex 2.86102e-06 4.7 0
      vertex 3.48355 0.160144 0
      vertex 2.90139 0.35776 0
    endloop
  endfacet
  facet normal 0 0 -1
    outer loop
      vertex 4.7 126.6 0
      vertex 2.86102e-06 121.9 0
      vertex 4.08652 126.56 0
    endloop
  endfacet
  facet normal 0 0 -1
    outer loop
      vertex 2.86102e-06 4.7 0
      vertex 2.90139 0.35776 0
      vertex 2.34999 0.629687 0
    endloop
  endfacet
  facet normal 0 0 -1
    outer loop
      vertex 4.08652 126.56 0
      vertex 2.86102e-06 121.9 0
      vertex 3.48355 126.44 0
    endloop
  endfacet
  facet normal 0 0 -1
    outer loop
      vertex 2.86102e-06 4.7 0
      vertex 2.34999 0.629687 0
      vertex 1.83882 0.97124 0
    endloop
  endfacet
  facet normal 0 0 -1
    outer loop
      vertex 3.48355 126.44 0
      vertex 2.86102e-06 121.9 0
      vertex 2.90139 126.242 0
    endloop
  endfacet
  facet normal 0 0 -1
    outer loop
      vertex 2.86102e-06 4.7 0
      vertex 1.83882 0.97124 0
      vertex 1.37661 1.37661 0
    endloop
  endfacet
  facet normal 0 0 -1
    outer loop
      vertex 2.90139 126.242 0
      vertex 2.86102e-06 121.9 0
      vertex 2.34999 125.97 0
    endloop
  endfacet
  facet normal 0 0 -1
    outer loop
      vertex 2.86102e-06 4.7 0
      vertex 1.37661 1.37661 0
      vertex 0.97124 1.83882 0
    endloop
  endfacet
  facet normal 0 0 -1
    outer loop
      vertex 2.34999 125.97 0
      vertex 2.86102e-06 121.9 0
      vertex 1.83882 125.629 0
    endloop
  endfacet
  facet normal 0 0 -1
    outer loop
      vertex 2.86102e-06 4.7 0
      vertex 0.97124 1.83882 0
      vertex 0.629687 2.34999 0
    endloop
  endfacet
  facet normal 0 0 -1
    outer loop
      vertex 1.83882 125.629 0
      vertex 2.86102e-06 121.9 0
      vertex 1.37661 125.223 0
    endloop
  endfacet
  facet normal 0 0 -1
    outer loop
      vertex 2.86102e-06 4.7 0
      vertex 0.629687 2.34999 0
      vertex 0.35776 2.90139 0
    endloop
  endfacet
  facet normal 0 0 -1
    outer loop
      vertex 1.37661 125.223 0
      vertex 2.86102e-06 121.9 0
      vertex 0.97124 124.761 0
    endloop
  endfacet
  facet normal 0 0 -1
    outer loop
      vertex 2.86102e-06 4.7 0
      vertex 0.35776 2.90139 0
      vertex 0.160144 3.48355 0
    endloop
  endfacet
  facet normal 0 0 -1
    outer loop
      vertex 0.97124 124.761 0
      vertex 2.86102e-06 121.9 0
      vertex 0.629687 124.25 0
    endloop
  endfacet
  facet normal 0 0 -1
    outer loop
      vertex 2.86102e-06 4.7 0
      vertex 0.160144 3.48355 0
      vertex 0.0402098 4.08652 0
    endloop
  endfacet
  facet normal 0 0 -1
    outer loop
      vertex 0.629687 124.25 0
      vertex 2.86102e-06 121.9 0
      vertex 0.35776 123.699 0
    endloop
  endfacet
  facet normal 0 0 -1
    outer loop
      vertex 0.35776 123.699 0
      vertex 2.86102e-06 121.9 0
      vertex 0.160144 123.116 0
    endloop
  endfacet
  facet normal 0 0 -1
    outer loop
      vertex 0.160144 123.116 0
      vertex 2.86102e-06 121.9 0
      vertex 0.0402098 122.513 0
    endloop
  endfacet
  facet normal -0.980788 0.195075 0
    outer loop
      vertex 0.0402098 122.513 0
      vertex 0.160144 123.116 3
      vertex 0.160144 123.116 0
    endloop
  endfacet
  facet normal -0.980788 0.195075 0
    outer loop
      vertex 0.160144 123.116 3
      vertex 0.0402098 122.513 0
      vertex 0.0402098 122.513 3
    endloop
  endfacet
  facet normal 0.659536 -0.751673 0
    outer loop
      vertex 193.561 0.97124 0
      vertex 194.023 1.37661 3
      vertex 193.561 0.97124 3
    endloop
  endfacet
  facet normal 0.659536 -0.751673 0
    outer loop
      vertex 194.023 1.37661 3
      vertex 193.561 0.97124 0
      vertex 194.023 1.37661 0
    endloop
  endfacet
  facet normal 0.555076 0.8318 -0
    outer loop
      vertex 193.561 125.629 0
      vertex 193.05 125.97 3
      vertex 193.561 125.629 3
    endloop
  endfacet
  facet normal 0.555076 0.8318 0
    outer loop
      vertex 193.05 125.97 3
      vertex 193.561 125.629 0
      vertex 193.05 125.97 0
    endloop
  endfacet
  facet normal -0.947071 0.321023 0
    outer loop
      vertex 0.160144 123.116 0
      vertex 0.35776 123.699 3
      vertex 0.35776 123.699 0
    endloop
  endfacet
  facet normal -0.947071 0.321023 0
    outer loop
      vertex 0.35776 123.699 3
      vertex 0.160144 123.116 0
      vertex 0.160144 123.116 3
    endloop
  endfacet
  facet normal -0.980764 -0.195195 0
    outer loop
      vertex 112.572 65.2579 0
      vertex 112.189 67.1823 3
      vertex 112.189 67.1823 0
    endloop
  endfacet
  facet normal -0.980764 -0.195195 0
    outer loop
      vertex 112.189 67.1823 3
      vertex 112.572 65.2579 0
      vertex 112.572 65.2579 3
    endloop
  endfacet
  facet normal -0.99787 -0.0652369 0
    outer loop
      vertex 112.7 63.3 0
      vertex 112.572 65.2579 3
      vertex 112.572 65.2579 0
    endloop
  endfacet
  facet normal -0.99787 -0.0652369 0
    outer loop
      vertex 112.572 65.2579 3
      vertex 112.7 63.3 0
      vertex 112.7 63.3 3
    endloop
  endfacet
  facet normal 0.980784 0.195097 0
    outer loop
      vertex 83.2111 59.4177 3
      vertex 82.8283 61.3421 0
      vertex 82.8283 61.3421 3
    endloop
  endfacet
  facet normal 0.980784 0.195097 0
    outer loop
      vertex 82.8283 61.3421 0
      vertex 83.2111 59.4177 3
      vertex 83.2111 59.4177 0
    endloop
  endfacet
  facet normal 0.555582 0.831462 -0
    outer loop
      vertex 90.2 50.3096 0
      vertex 88.5686 51.3997 3
      vertex 90.2 50.3096 3
    endloop
  endfacet
  facet normal 0.555582 0.831462 0
    outer loop
      vertex 88.5686 51.3997 3
      vertex 90.2 50.3096 0
      vertex 88.5686 51.3997 0
    endloop
  endfacet
  facet normal -0.659139 0.752021 0
    outer loop
      vertex 108.307 52.6934 0
      vertex 106.831 51.3997 3
      vertex 108.307 52.6934 3
    endloop
  endfacet
  facet normal -0.659139 0.752021 0
    outer loop
      vertex 106.831 51.3997 3
      vertex 108.307 52.6934 0
      vertex 106.831 51.3997 0
    endloop
  endfacet
  facet normal -0.442233 0.8969 0
    outer loop
      vertex 105.2 50.3096 0
      vertex 103.44 49.4418 3
      vertex 105.2 50.3096 3
    endloop
  endfacet
  facet normal -0.442233 0.8969 0
    outer loop
      vertex 103.44 49.4418 3
      vertex 105.2 50.3096 0
      vertex 103.44 49.4418 0
    endloop
  endfacet
  facet normal 0.195097 -0.980784 0
    outer loop
      vertex 93.8177 77.7889 0
      vertex 95.7421 78.1717 3
      vertex 93.8177 77.7889 3
    endloop
  endfacet
  facet normal 0.195097 -0.980784 0
    outer loop
      vertex 95.7421 78.1717 3
      vertex 93.8177 77.7889 0
      vertex 95.7421 78.1717 0
    endloop
  endfacet
  facet normal 0.0653892 0.99786 -0
    outer loop
      vertex 97.7 48.3 0
      vertex 95.7421 48.4283 3
      vertex 97.7 48.3 3
    endloop
  endfacet
  facet normal 0.0653892 0.99786 0
    outer loop
      vertex 95.7421 48.4283 3
      vertex 97.7 48.3 0
      vertex 95.7421 48.4283 0
    endloop
  endfacet
  facet normal -0.442233 -0.8969 0
    outer loop
      vertex 103.44 77.1582 0
      vertex 105.2 76.2904 3
      vertex 103.44 77.1582 3
    endloop
  endfacet
  facet normal -0.442233 -0.8969 -0
    outer loop
      vertex 105.2 76.2904 3
      vertex 103.44 77.1582 0
      vertex 105.2 76.2904 0
    endloop
  endfacet
  facet normal 0.0653892 -0.99786 0
    outer loop
      vertex 95.7421 78.1717 0
      vertex 97.7 78.3 3
      vertex 95.7421 78.1717 3
    endloop
  endfacet
  facet normal 0.0653892 -0.99786 0
    outer loop
      vertex 97.7 78.3 3
      vertex 95.7421 78.1717 0
      vertex 97.7 78.3 0
    endloop
  endfacet
  facet normal 0.831462 0.555582 0
    outer loop
      vertex 85.7997 54.1686 3
      vertex 84.7096 55.8 0
      vertex 84.7096 55.8 3
    endloop
  endfacet
  facet normal 0.831462 0.555582 0
    outer loop
      vertex 84.7096 55.8 0
      vertex 85.7997 54.1686 3
      vertex 85.7997 54.1686 0
    endloop
  endfacet
  facet normal -0.946885 0.321574 0
    outer loop
      vertex 111.558 57.5597 0
      vertex 112.189 59.4177 3
      vertex 112.189 59.4177 0
    endloop
  endfacet
  facet normal -0.946885 0.321574 0
    outer loop
      vertex 112.189 59.4177 3
      vertex 111.558 57.5597 0
      vertex 111.558 57.5597 3
    endloop
  endfacet
  facet normal 0.195097 0.980784 -0
    outer loop
      vertex 95.7421 48.4283 0
      vertex 93.8177 48.8111 3
      vertex 95.7421 48.4283 3
    endloop
  endfacet
  facet normal 0.195097 0.980784 0
    outer loop
      vertex 93.8177 48.8111 3
      vertex 95.7421 48.4283 0
      vertex 93.8177 48.8111 0
    endloop
  endfacet
  facet normal -0.321437 -0.946931 0
    outer loop
      vertex 101.582 77.7889 0
      vertex 103.44 77.1582 3
      vertex 101.582 77.7889 3
    endloop
  endfacet
  facet normal -0.321437 -0.946931 -0
    outer loop
      vertex 103.44 77.1582 3
      vertex 101.582 77.7889 0
      vertex 103.44 77.1582 0
    endloop
  endfacet
  facet normal -0.555676 0.831399 0
    outer loop
      vertex 106.831 51.3997 0
      vertex 105.2 50.3096 3
      vertex 106.831 51.3997 3
    endloop
  endfacet
  facet normal -0.555676 0.831399 0
    outer loop
      vertex 105.2 50.3096 3
      vertex 106.831 51.3997 0
      vertex 105.2 50.3096 0
    endloop
  endfacet
  facet normal 0.946931 0.321437 0
    outer loop
      vertex 83.8418 57.5597 3
      vertex 83.2111 59.4177 0
      vertex 83.2111 59.4177 3
    endloop
  endfacet
  facet normal 0.946931 0.321437 0
    outer loop
      vertex 83.2111 59.4177 0
      vertex 83.8418 57.5597 3
      vertex 83.8418 57.5597 0
    endloop
  endfacet
  facet normal 0.555582 -0.831462 0
    outer loop
      vertex 88.5686 75.2003 0
      vertex 90.2 76.2904 3
      vertex 88.5686 75.2003 3
    endloop
  endfacet
  facet normal 0.555582 -0.831462 0
    outer loop
      vertex 90.2 76.2904 3
      vertex 88.5686 75.2003 0
      vertex 90.2 76.2904 0
    endloop
  endfacet
  facet normal -0.195126 -0.980778 0
    outer loop
      vertex 99.6579 78.1717 0
      vertex 101.582 77.7889 3
      vertex 99.6579 78.1717 3
    endloop
  endfacet
  facet normal -0.195126 -0.980778 -0
    outer loop
      vertex 101.582 77.7889 3
      vertex 99.6579 78.1717 0
      vertex 101.582 77.7889 0
    endloop
  endfacet
  facet normal -0.555676 -0.831399 0
    outer loop
      vertex 105.2 76.2904 0
      vertex 106.831 75.2003 3
      vertex 105.2 76.2904 3
    endloop
  endfacet
  facet normal -0.555676 -0.831399 -0
    outer loop
      vertex 106.831 75.2003 3
      vertex 105.2 76.2904 0
      vertex 106.831 75.2003 0
    endloop
  endfacet
  facet normal -0.946885 -0.321574 0
    outer loop
      vertex 112.189 67.1823 0
      vertex 111.558 69.0403 3
      vertex 111.558 69.0403 0
    endloop
  endfacet
  facet normal -0.946885 -0.321574 0
    outer loop
      vertex 111.558 69.0403 3
      vertex 112.189 67.1823 0
      vertex 112.189 67.1823 3
    endloop
  endfacet
  facet normal -0.195126 0.980778 0
    outer loop
      vertex 101.582 48.8111 0
      vertex 99.6579 48.4283 3
      vertex 101.582 48.8111 3
    endloop
  endfacet
  facet normal -0.195126 0.980778 0
    outer loop
      vertex 99.6579 48.4283 3
      vertex 101.582 48.8111 0
      vertex 99.6579 48.4283 0
    endloop
  endfacet
  facet normal -0.89683 0.442376 0
    outer loop
      vertex 110.69 55.8 0
      vertex 111.558 57.5597 3
      vertex 111.558 57.5597 0
    endloop
  endfacet
  facet normal -0.89683 0.442376 0
    outer loop
      vertex 111.558 57.5597 3
      vertex 110.69 55.8 0
      vertex 110.69 55.8 3
    endloop
  endfacet
  facet normal -0.831485 -0.555547 0
    outer loop
      vertex 110.69 70.8 0
      vertex 109.6 72.4314 3
      vertex 109.6 72.4314 0
    endloop
  endfacet
  facet normal -0.831485 -0.555547 0
    outer loop
      vertex 109.6 72.4314 3
      vertex 110.69 70.8 0
      vertex 110.69 70.8 3
    endloop
  endfacet
  facet normal -0.321437 0.946931 0
    outer loop
      vertex 103.44 49.4418 0
      vertex 101.582 48.8111 3
      vertex 103.44 49.4418 3
    endloop
  endfacet
  facet normal -0.321437 0.946931 0
    outer loop
      vertex 101.582 48.8111 3
      vertex 103.44 49.4418 0
      vertex 101.582 48.8111 0
    endloop
  endfacet
  facet normal -0.0653892 -0.99786 0
    outer loop
      vertex 97.7 78.3 0
      vertex 99.6579 78.1717 3
      vertex 97.7 78.3 3
    endloop
  endfacet
  facet normal -0.0653892 -0.99786 -0
    outer loop
      vertex 99.6579 78.1717 3
      vertex 97.7 78.3 0
      vertex 99.6579 78.1717 0
    endloop
  endfacet
  facet normal 0.831462 -0.555582 0
    outer loop
      vertex 84.7096 70.8 3
      vertex 85.7997 72.4314 0
      vertex 85.7997 72.4314 3
    endloop
  endfacet
  facet normal 0.831462 -0.555582 0
    outer loop
      vertex 85.7997 72.4314 0
      vertex 84.7096 70.8 3
      vertex 84.7096 70.8 0
    endloop
  endfacet
  facet normal -0.89683 -0.442376 0
    outer loop
      vertex 111.558 69.0403 0
      vertex 110.69 70.8 3
      vertex 110.69 70.8 0
    endloop
  endfacet
  facet normal -0.89683 -0.442376 0
    outer loop
      vertex 110.69 70.8 3
      vertex 111.558 69.0403 0
      vertex 111.558 69.0403 3
    endloop
  endfacet
  facet normal -0.831485 0.555547 0
    outer loop
      vertex 109.6 54.1686 0
      vertex 110.69 55.8 3
      vertex 110.69 55.8 0
    endloop
  endfacet
  facet normal -0.831485 0.555547 0
    outer loop
      vertex 110.69 55.8 3
      vertex 109.6 54.1686 0
      vertex 109.6 54.1686 3
    endloop
  endfacet
  facet normal 0.442294 -0.89687 0
    outer loop
      vertex 90.2 76.2904 0
      vertex 91.9597 77.1582 3
      vertex 90.2 76.2904 3
    endloop
  endfacet
  facet normal 0.442294 -0.89687 0
    outer loop
      vertex 91.9597 77.1582 3
      vertex 90.2 76.2904 0
      vertex 91.9597 77.1582 0
    endloop
  endfacet
  facet normal -0.99787 0.0652369 0
    outer loop
      vertex 112.572 61.3421 0
      vertex 112.7 63.3 3
      vertex 112.7 63.3 0
    endloop
  endfacet
  facet normal -0.99787 0.0652369 0
    outer loop
      vertex 112.7 63.3 3
      vertex 112.572 61.3421 0
      vertex 112.572 61.3421 3
    endloop
  endfacet
  facet normal -0.980764 0.195195 0
    outer loop
      vertex 112.189 59.4177 0
      vertex 112.572 61.3421 3
      vertex 112.572 61.3421 0
    endloop
  endfacet
  facet normal -0.980764 0.195195 0
    outer loop
      vertex 112.572 61.3421 3
      vertex 112.189 59.4177 0
      vertex 112.189 59.4177 3
    endloop
  endfacet
  facet normal 0.751844 -0.659341 0
    outer loop
      vertex 85.7997 72.4314 3
      vertex 87.0934 73.9066 0
      vertex 87.0934 73.9066 3
    endloop
  endfacet
  facet normal 0.751844 -0.659341 0
    outer loop
      vertex 87.0934 73.9066 0
      vertex 85.7997 72.4314 3
      vertex 85.7997 72.4314 0
    endloop
  endfacet
  facet normal -0.752021 0.65914 0
    outer loop
      vertex 108.307 52.6934 0
      vertex 109.6 54.1686 3
      vertex 109.6 54.1686 0
    endloop
  endfacet
  facet normal -0.752021 0.65914 0
    outer loop
      vertex 109.6 54.1686 3
      vertex 108.307 52.6934 0
      vertex 108.307 52.6934 3
    endloop
  endfacet
  facet normal 0.980784 -0.195097 0
    outer loop
      vertex 82.8283 65.2579 3
      vertex 83.2111 67.1823 0
      vertex 83.2111 67.1823 3
    endloop
  endfacet
  facet normal 0.980784 -0.195097 0
    outer loop
      vertex 83.2111 67.1823 0
      vertex 82.8283 65.2579 3
      vertex 82.8283 65.2579 0
    endloop
  endfacet
  facet normal 0.89687 0.442294 0
    outer loop
      vertex 84.7096 55.8 3
      vertex 83.8418 57.5597 0
      vertex 83.8418 57.5597 3
    endloop
  endfacet
  facet normal 0.89687 0.442294 0
    outer loop
      vertex 83.8418 57.5597 0
      vertex 84.7096 55.8 3
      vertex 84.7096 55.8 0
    endloop
  endfacet
  facet normal -0.0653892 0.99786 0
    outer loop
      vertex 99.6579 48.4283 0
      vertex 97.7 48.3 3
      vertex 99.6579 48.4283 3
    endloop
  endfacet
  facet normal -0.0653892 0.99786 0
    outer loop
      vertex 97.7 48.3 3
      vertex 99.6579 48.4283 0
      vertex 97.7 48.3 0
    endloop
  endfacet
  facet normal 0.659341 0.751844 -0
    outer loop
      vertex 88.5686 51.3997 0
      vertex 87.0934 52.6934 3
      vertex 88.5686 51.3997 3
    endloop
  endfacet
  facet normal 0.659341 0.751844 0
    outer loop
      vertex 87.0934 52.6934 3
      vertex 88.5686 51.3997 0
      vertex 87.0934 52.6934 0
    endloop
  endfacet
  facet normal -0.659139 -0.752021 0
    outer loop
      vertex 106.831 75.2003 0
      vertex 108.307 73.9066 3
      vertex 106.831 75.2003 3
    endloop
  endfacet
  facet normal -0.659139 -0.752021 -0
    outer loop
      vertex 108.307 73.9066 3
      vertex 106.831 75.2003 0
      vertex 108.307 73.9066 0
    endloop
  endfacet
  facet normal -0.752021 -0.65914 0
    outer loop
      vertex 109.6 72.4314 0
      vertex 108.307 73.9066 3
      vertex 108.307 73.9066 0
    endloop
  endfacet
  facet normal -0.752021 -0.65914 0
    outer loop
      vertex 108.307 73.9066 3
      vertex 109.6 72.4314 0
      vertex 109.6 72.4314 3
    endloop
  endfacet
  facet normal 0.659341 -0.751844 0
    outer loop
      vertex 87.0934 73.9066 0
      vertex 88.5686 75.2003 3
      vertex 87.0934 73.9066 3
    endloop
  endfacet
  facet normal 0.659341 -0.751844 0
    outer loop
      vertex 88.5686 75.2003 3
      vertex 87.0934 73.9066 0
      vertex 88.5686 75.2003 0
    endloop
  endfacet
  facet normal 0.751844 0.659341 0
    outer loop
      vertex 87.0934 52.6934 3
      vertex 85.7997 54.1686 0
      vertex 85.7997 54.1686 3
    endloop
  endfacet
  facet normal 0.751844 0.659341 0
    outer loop
      vertex 85.7997 54.1686 0
      vertex 87.0934 52.6934 3
      vertex 87.0934 52.6934 0
    endloop
  endfacet
  facet normal 0.321437 -0.946931 0
    outer loop
      vertex 91.9597 77.1582 0
      vertex 93.8177 77.7889 3
      vertex 91.9597 77.1582 3
    endloop
  endfacet
  facet normal 0.321437 -0.946931 0
    outer loop
      vertex 93.8177 77.7889 3
      vertex 91.9597 77.1582 0
      vertex 93.8177 77.7889 0
    endloop
  endfacet
  facet normal 0.99786 -0.0653892 0
    outer loop
      vertex 82.7 63.3 3
      vertex 82.8283 65.2579 0
      vertex 82.8283 65.2579 3
    endloop
  endfacet
  facet normal 0.99786 -0.0653892 0
    outer loop
      vertex 82.8283 65.2579 0
      vertex 82.7 63.3 3
      vertex 82.7 63.3 0
    endloop
  endfacet
  facet normal 0.442294 0.89687 -0
    outer loop
      vertex 91.9597 49.4418 0
      vertex 90.2 50.3096 3
      vertex 91.9597 49.4418 3
    endloop
  endfacet
  facet normal 0.442294 0.89687 0
    outer loop
      vertex 90.2 50.3096 3
      vertex 91.9597 49.4418 0
      vertex 90.2 50.3096 0
    endloop
  endfacet
  facet normal 0.321437 0.946931 -0
    outer loop
      vertex 93.8177 48.8111 0
      vertex 91.9597 49.4418 3
      vertex 93.8177 48.8111 3
    endloop
  endfacet
  facet normal 0.321437 0.946931 0
    outer loop
      vertex 91.9597 49.4418 3
      vertex 93.8177 48.8111 0
      vertex 91.9597 49.4418 0
    endloop
  endfacet
  facet normal 0.99786 0.0653892 0
    outer loop
      vertex 82.8283 61.3421 3
      vertex 82.7 63.3 0
      vertex 82.7 63.3 3
    endloop
  endfacet
  facet normal 0.99786 0.0653892 0
    outer loop
      vertex 82.7 63.3 0
      vertex 82.8283 61.3421 3
      vertex 82.8283 61.3421 0
    endloop
  endfacet
  facet normal 0.946931 -0.321437 0
    outer loop
      vertex 83.2111 67.1823 3
      vertex 83.8418 69.0403 0
      vertex 83.8418 69.0403 3
    endloop
  endfacet
  facet normal 0.946931 -0.321437 0
    outer loop
      vertex 83.8418 69.0403 0
      vertex 83.2111 67.1823 3
      vertex 83.2111 67.1823 0
    endloop
  endfacet
  facet normal 0.89687 -0.442294 0
    outer loop
      vertex 83.8418 69.0403 3
      vertex 84.7096 70.8 0
      vertex 84.7096 70.8 3
    endloop
  endfacet
  facet normal 0.89687 -0.442294 0
    outer loop
      vertex 84.7096 70.8 0
      vertex 83.8418 69.0403 3
      vertex 83.8418 69.0403 0
    endloop
  endfacet
endsolid OpenSCAD_Model
