solid OpenSCAD_Model
  facet normal 1 -0 0
    outer loop
      vertex 3.3 -3.4 3.14
      vertex 3.3 -0.599999 2.8
      vertex 3.3 -0.599999 3.14
    endloop
  endfacet
  facet normal 1 0 0
    outer loop
      vertex 3.3 -0.599999 2.8
      vertex 3.3 -3.4 3.14
      vertex 3.3 -3.4 2.8
    endloop
  endfacet
  facet normal 0 -1 0
    outer loop
      vertex 2.3 -3.4 2.8
      vertex 3.3 -3.4 3.14
      vertex 2.3 -3.4 3.14
    endloop
  endfacet
  facet normal 0 -1 -0
    outer loop
      vertex 3.3 -3.4 3.14
      vertex 2.3 -3.4 2.8
      vertex 3.3 -3.4 2.8
    endloop
  endfacet
  facet normal 0 1 -0
    outer loop
      vertex 3.3 -0.599999 2.8
      vertex 2.3 -0.599999 3.14
      vertex 3.3 -0.599999 3.14
    endloop
  endfacet
  facet normal 0 1 0
    outer loop
      vertex 2.3 -0.599999 3.14
      vertex 3.3 -0.599999 2.8
      vertex 2.3 -0.599999 2.8
    endloop
  endfacet
  facet normal -1 0 0
    outer loop
      vertex 2.3 -3.4 2.8
      vertex 2.3 -0.599999 3.14
      vertex 2.3 -0.599999 2.8
    endloop
  endfacet
  facet normal -1 -0 0
    outer loop
      vertex 2.3 -0.599999 3.14
      vertex 2.3 -3.4 2.8
      vertex 2.3 -3.4 3.14
    endloop
  endfacet
  facet normal -0 0 1
    outer loop
      vertex 2.3 -0.599999 3.14
      vertex 3.3 -3.4 3.14
      vertex 3.3 -0.599999 3.14
    endloop
  endfacet
  facet normal 0 0 1
    outer loop
      vertex 3.3 -3.4 3.14
      vertex 2.3 -0.599999 3.14
      vertex 2.3 -3.4 3.14
    endloop
  endfacet
  facet normal 1 -0 0
    outer loop
      vertex 6.9 -3.4 3.14
      vertex 6.9 -0.599999 2.8
      vertex 6.9 -0.599999 3.14
    endloop
  endfacet
  facet normal 1 0 0
    outer loop
      vertex 6.9 -0.599999 2.8
      vertex 6.9 -3.4 3.14
      vertex 6.9 -3.4 2.8
    endloop
  endfacet
  facet normal 0 -1 0
    outer loop
      vertex 5.9 -3.4 2.8
      vertex 6.9 -3.4 3.14
      vertex 5.9 -3.4 3.14
    endloop
  endfacet
  facet normal 0 -1 -0
    outer loop
      vertex 6.9 -3.4 3.14
      vertex 5.9 -3.4 2.8
      vertex 6.9 -3.4 2.8
    endloop
  endfacet
  facet normal 0 1 -0
    outer loop
      vertex 6.9 -0.599999 2.8
      vertex 5.9 -0.599999 3.14
      vertex 6.9 -0.599999 3.14
    endloop
  endfacet
  facet normal 0 1 0
    outer loop
      vertex 5.9 -0.599999 3.14
      vertex 6.9 -0.599999 2.8
      vertex 5.9 -0.599999 2.8
    endloop
  endfacet
  facet normal -1 0 0
    outer loop
      vertex 5.9 -3.4 2.8
      vertex 5.9 -0.599999 3.14
      vertex 5.9 -0.599999 2.8
    endloop
  endfacet
  facet normal -1 -0 0
    outer loop
      vertex 5.9 -0.599999 3.14
      vertex 5.9 -3.4 2.8
      vertex 5.9 -3.4 3.14
    endloop
  endfacet
  facet normal -0 0 1
    outer loop
      vertex 5.9 -0.599999 3.14
      vertex 6.9 -3.4 3.14
      vertex 6.9 -0.599999 3.14
    endloop
  endfacet
  facet normal 0 0 1
    outer loop
      vertex 6.9 -3.4 3.14
      vertex 5.9 -0.599999 3.14
      vertex 5.9 -3.4 3.14
    endloop
  endfacet
  facet normal 1 -0 0
    outer loop
      vertex 7.4 -3.6 2.8
      vertex 7.4 -0.4 0
      vertex 7.4 -0.4 2.8
    endloop
  endfacet
  facet normal 1 0 0
    outer loop
      vertex 7.4 -0.4 0
      vertex 7.4 -3.6 2.8
      vertex 7.4 -3.6 0
    endloop
  endfacet
  facet normal 0 1 0
    outer loop
      vertex 9 -3.6 4.39
      vertex 7.4 -3.6 2.8
      vertex 0 -3.6 4.39
    endloop
  endfacet
  facet normal 0 1 -0
    outer loop
      vertex 9 -3.6 0
      vertex 7.4 -3.6 2.8
      vertex 9 -3.6 4.39
    endloop
  endfacet
  facet normal 0 1 0
    outer loop
      vertex 7.4 -3.6 2.8
      vertex 9 -3.6 0
      vertex 7.4 -3.6 0
    endloop
  endfacet
  facet normal 0 1 -0
    outer loop
      vertex 1.6 -3.6 2.8
      vertex 0 -3.6 4.39
      vertex 7.4 -3.6 2.8
    endloop
  endfacet
  facet normal 0 1 0
    outer loop
      vertex 0 -3.6 0
      vertex 1.6 -3.6 2.8
      vertex 1.6 -3.6 0
    endloop
  endfacet
  facet normal 0 1 0
    outer loop
      vertex 1.6 -3.6 2.8
      vertex 0 -3.6 0
      vertex 0 -3.6 4.39
    endloop
  endfacet
  facet normal 0 1 -0
    outer loop
      vertex 7.4 -0.4 0
      vertex 1.6 -0.4 2.8
      vertex 7.4 -0.4 2.8
    endloop
  endfacet
  facet normal 0 1 0
    outer loop
      vertex 1.6 -0.4 2.8
      vertex 7.4 -0.4 0
      vertex 1.6 -0.4 0
    endloop
  endfacet
  facet normal -1 0 0
    outer loop
      vertex 1.6 -3.6 0
      vertex 1.6 -0.4 2.8
      vertex 1.6 -0.4 0
    endloop
  endfacet
  facet normal -1 -0 0
    outer loop
      vertex 1.6 -0.4 2.8
      vertex 1.6 -3.6 0
      vertex 1.6 -3.6 2.8
    endloop
  endfacet
  facet normal 0 0 1
    outer loop
      vertex 7.4 -0.4 2.8
      vertex 6.9 -0.599999 2.8
      vertex 7.4 -3.6 2.8
    endloop
  endfacet
  facet normal 0 0 1
    outer loop
      vertex 7.4 -0.4 2.8
      vertex 5.9 -0.599999 2.8
      vertex 6.9 -0.599999 2.8
    endloop
  endfacet
  facet normal 0 0 1
    outer loop
      vertex 5.9 -0.599999 2.8
      vertex 3.3 -0.599999 2.8
      vertex 5.9 -3.4 2.8
    endloop
  endfacet
  facet normal 0 0 1
    outer loop
      vertex 7.4 -0.4 2.8
      vertex 3.3 -0.599999 2.8
      vertex 5.9 -0.599999 2.8
    endloop
  endfacet
  facet normal -0 0 1
    outer loop
      vertex 1.6 -0.4 2.8
      vertex 3.3 -0.599999 2.8
      vertex 7.4 -0.4 2.8
    endloop
  endfacet
  facet normal 0 0 1
    outer loop
      vertex 2.3 -0.599999 2.8
      vertex 1.6 -0.4 2.8
      vertex 2.3 -3.4 2.8
    endloop
  endfacet
  facet normal 0 0 1
    outer loop
      vertex 3.3 -0.599999 2.8
      vertex 1.6 -0.4 2.8
      vertex 2.3 -0.599999 2.8
    endloop
  endfacet
  facet normal -0 0 1
    outer loop
      vertex 6.9 -3.4 2.8
      vertex 7.4 -3.6 2.8
      vertex 6.9 -0.599999 2.8
    endloop
  endfacet
  facet normal -0 0 1
    outer loop
      vertex 5.9 -3.4 2.8
      vertex 7.4 -3.6 2.8
      vertex 6.9 -3.4 2.8
    endloop
  endfacet
  facet normal 0 0 1
    outer loop
      vertex 3.3 -3.4 2.8
      vertex 5.9 -3.4 2.8
      vertex 3.3 -0.599999 2.8
    endloop
  endfacet
  facet normal -0 0 1
    outer loop
      vertex 3.3 -3.4 2.8
      vertex 7.4 -3.6 2.8
      vertex 5.9 -3.4 2.8
    endloop
  endfacet
  facet normal 0 0 1
    outer loop
      vertex 1.6 -3.6 2.8
      vertex 3.3 -3.4 2.8
      vertex 2.3 -3.4 2.8
    endloop
  endfacet
  facet normal 0 0 1
    outer loop
      vertex 3.3 -3.4 2.8
      vertex 1.6 -3.6 2.8
      vertex 7.4 -3.6 2.8
    endloop
  endfacet
  facet normal 0 0 1
    outer loop
      vertex 1.6 -3.6 2.8
      vertex 2.3 -3.4 2.8
      vertex 1.6 -0.4 2.8
    endloop
  endfacet
  facet normal 0 0 -1
    outer loop
      vertex 9 -5.4 0
      vertex 7.4 -3.6 0
      vertex 9 -3.6 0
    endloop
  endfacet
  facet normal 0 0 -1
    outer loop
      vertex 7.4 -3.6 0
      vertex 1.6 -3.6 0
      vertex 7.4 -0.4 0
    endloop
  endfacet
  facet normal 0 0 -1
    outer loop
      vertex 9 -5.4 0
      vertex 1.6 -3.6 0
      vertex 7.4 -3.6 0
    endloop
  endfacet
  facet normal 0 0 -1
    outer loop
      vertex 0 -5.4 0
      vertex 1.6 -3.6 0
      vertex 9 -5.4 0
    endloop
  endfacet
  facet normal -0 0 -1
    outer loop
      vertex 1.6 -3.6 0
      vertex 0 -5.4 0
      vertex 0 -3.6 0
    endloop
  endfacet
  facet normal -0 0 -1
    outer loop
      vertex 7.4 -0.4 0
      vertex 1.6 -3.6 0
      vertex 1.6 -0.4 0
    endloop
  endfacet
  facet normal 1 0 0
    outer loop
      vertex 9 -3.6 4.39
      vertex 9 -5.4 1.49
      vertex 9 -3.6 0
    endloop
  endfacet
  facet normal 1 -0 0
    outer loop
      vertex 9 -6.3 4.39
      vertex 9 -5.4 1.49
      vertex 9 -3.6 4.39
    endloop
  endfacet
  facet normal 1 0 0
    outer loop
      vertex 9 -5.4 1.49
      vertex 9 -6.3 4.39
      vertex 9 -6.3 1.49
    endloop
  endfacet
  facet normal 1 0 0
    outer loop
      vertex 9 -3.6 0
      vertex 9 -5.4 1.49
      vertex 9 -5.4 0
    endloop
  endfacet
  facet normal 0 -1 0
    outer loop
      vertex 0 -5.4 0
      vertex 9 -5.4 1.49
      vertex 0 -5.4 1.49
    endloop
  endfacet
  facet normal 0 -1 -0
    outer loop
      vertex 9 -5.4 1.49
      vertex 0 -5.4 0
      vertex 9 -5.4 0
    endloop
  endfacet
  facet normal -1 0 0
    outer loop
      vertex 0 -5.4 1.49
      vertex 0 -3.6 0
      vertex 0 -5.4 0
    endloop
  endfacet
  facet normal -1 0 0
    outer loop
      vertex 0 -3.6 0
      vertex 0 -5.4 1.49
      vertex 0 -3.6 4.39
    endloop
  endfacet
  facet normal -1 0 0
    outer loop
      vertex 0 -6.3 4.39
      vertex 0 -5.4 1.49
      vertex 0 -6.3 1.49
    endloop
  endfacet
  facet normal -1 0 0
    outer loop
      vertex 0 -5.4 1.49
      vertex 0 -6.3 4.39
      vertex 0 -3.6 4.39
    endloop
  endfacet
  facet normal 0 -1 0
    outer loop
      vertex 0 -6.3 1.49
      vertex 9 -6.3 4.39
      vertex 0 -6.3 4.39
    endloop
  endfacet
  facet normal 0 -1 -0
    outer loop
      vertex 9 -6.3 4.39
      vertex 0 -6.3 1.49
      vertex 9 -6.3 1.49
    endloop
  endfacet
  facet normal -0 0 1
    outer loop
      vertex 0 -3.6 4.39
      vertex 9 -6.3 4.39
      vertex 9 -3.6 4.39
    endloop
  endfacet
  facet normal 0 0 1
    outer loop
      vertex 9 -6.3 4.39
      vertex 0 -3.6 4.39
      vertex 0 -6.3 4.39
    endloop
  endfacet
  facet normal 0 0 -1
    outer loop
      vertex 0 -6.3 1.49
      vertex 9 -5.4 1.49
      vertex 9 -6.3 1.49
    endloop
  endfacet
  facet normal -0 0 -1
    outer loop
      vertex 9 -5.4 1.49
      vertex 0 -6.3 1.49
      vertex 0 -5.4 1.49
    endloop
  endfacet
endsolid OpenSCAD_Model
