<svg width="50" height="50" viewBox="0 0 50 50" fill="none" xmlns="http://www.w3.org/2000/svg">
<path d="M24.999 5.74805C36.4076 5.74805 45.618 15.0835 45.6182 26.5508C45.6181 32.1504 43.4206 37.2404 39.8447 40.9844L44.957 46.124C45.8422 47.014 45.8382 48.4537 44.9482 49.3389C44.0583 50.224 42.6185 50.2201 41.7334 49.3301L36.3506 43.918C33.0972 46.0872 29.1973 47.3525 24.999 47.3525C20.8006 47.3524 16.9009 46.0865 13.6475 43.917L8.26465 49.3301C7.37956 50.2197 5.94068 50.2237 5.05078 49.3389C4.16108 48.4537 4.15695 47.0139 5.04199 46.124L10.1533 40.9844C6.5778 37.2404 4.38095 32.1501 4.38086 26.5508C4.381 15.0837 13.5907 5.74835 24.999 5.74805ZM24.999 10.2939C16.1437 10.2942 8.92592 17.5513 8.92578 26.5508C8.92596 35.5502 16.1437 42.8073 24.999 42.8076C33.8546 42.8076 41.0721 35.5504 41.0723 26.5508C41.0721 17.5511 33.8546 10.2939 24.999 10.2939ZM24.999 16.3359C26.2541 16.3359 27.2723 17.3543 27.2725 18.6094V25.6045L30.3799 28.6924C31.2703 29.577 31.2751 31.0158 30.3906 31.9062C29.506 32.7967 28.0672 32.8016 27.1768 31.917L23.3975 28.1631C22.9683 27.7366 22.7267 27.1559 22.7266 26.5508V18.6094C22.7267 17.3545 23.7442 16.3362 24.999 16.3359ZM7.51367 0.00390625C9.51387 0.00390625 11.4285 0.807161 12.8359 2.22852C13.7189 3.12049 13.7112 4.55931 12.8193 5.44238C11.9274 6.32542 10.4886 6.31864 9.60547 5.42676C9.04693 4.86276 8.29363 4.5498 7.51367 4.5498C6.73389 4.55 5.98125 4.86277 5.42285 5.42676C4.86364 5.9916 4.545 6.76278 4.54492 7.57129C4.54499 8.37966 4.86371 9.15093 5.42285 9.71582C6.30574 10.6077 6.29892 12.0466 5.40723 12.9297C4.51528 13.8128 3.0755 13.8059 2.19238 12.9141C0.785964 11.4934 6.36201e-05 9.57072 0 7.57129C0.000105066 5.57192 0.785858 3.64921 2.19238 2.22852C3.59963 0.807177 5.51364 0.00410482 7.51367 0.00390625ZM42.4854 0C44.4854 9.18576e-06 46.3993 0.802533 47.8066 2.22363C49.2134 3.64432 49.9999 5.56704 50 7.56641C50 9.56599 49.2134 11.4884 47.8066 12.9092C46.9235 13.8011 45.4847 13.808 44.5928 12.9248C43.7012 12.0416 43.6941 10.6027 44.5771 9.71094C45.1363 9.14605 45.4541 8.37489 45.4541 7.56641C45.454 6.75798 45.1363 5.98662 44.5771 5.42188C44.0185 4.85779 43.2651 4.54493 42.4854 4.54492C41.7053 4.54499 40.9527 4.85815 40.3945 5.42188C39.5115 6.31392 38.0717 6.32152 37.1797 5.43848C36.288 4.55541 36.2812 3.11653 37.1641 2.22461C38.5714 0.802965 40.485 7.12546e-05 42.4854 0Z" fill="white"/>
</svg>
