<svg width="30" height="30" viewBox="0 0 30 30" fill="none" xmlns="http://www.w3.org/2000/svg">
<path d="M14.999 3.44824C21.844 3.44824 27.3697 9.04957 27.3701 15.9297C27.3701 19.2897 26.05 22.3424 23.9043 24.5889L26.9736 27.6748C27.5045 28.2087 27.5024 29.0715 26.9688 29.6025C26.4348 30.1336 25.5711 30.1316 25.04 29.5977L21.8086 26.3486C19.8566 27.6501 17.5179 28.4111 14.999 28.4111C12.4802 28.411 10.1414 27.6502 8.18945 26.3486L4.95898 29.5977C4.4279 30.1316 3.56425 30.1336 3.03027 29.6025C2.49681 29.0714 2.49448 28.2086 3.02539 27.6748L6.09375 24.5889C3.94841 22.3425 2.62793 19.2893 2.62793 15.9297C2.62832 9.04981 8.1544 3.44864 14.999 3.44824ZM14.999 6.17578C9.68618 6.17618 5.35586 10.5304 5.35547 15.9297C5.35547 21.3293 9.68594 25.6842 14.999 25.6846C20.3124 25.6846 24.6436 21.3296 24.6436 15.9297C24.6432 10.5301 20.3122 6.17578 14.999 6.17578ZM16.0908 21H14.1865V13.5264L12.7363 14.541L11.7275 13.3008L14.833 11.1816H16.0908V21ZM4.50781 0.00195312C5.70784 0.00195312 6.85675 0.484224 7.70117 1.33691C8.23105 1.87209 8.22658 2.73575 7.69141 3.26562C7.15621 3.79527 6.29249 3.79096 5.7627 3.25586C5.42761 2.91769 4.97562 2.72949 4.50781 2.72949C4.04016 2.72972 3.58883 2.91766 3.25391 3.25586C2.91851 3.59461 2.72679 4.05711 2.72656 4.54199C2.72656 5.02698 2.91851 5.49015 3.25391 5.8291C3.78357 6.36429 3.77922 7.228 3.24414 7.75781C2.70897 8.28766 1.8453 8.28318 1.31543 7.74805C0.471666 6.89563 0 5.74161 0 4.54199C0.000222895 3.34254 0.471597 2.18919 1.31543 1.33691C2.15969 0.484203 3.30794 0.00217686 4.50781 0.00195312ZM25.4912 0C26.691 5.76578e-05 27.8392 0.481555 28.6836 1.33398C29.5276 2.18639 29.9999 3.34043 30 4.54004C29.9999 5.73971 29.5276 6.89268 28.6836 7.74512C28.1538 8.28021 27.291 8.28456 26.7559 7.75488C26.221 7.22496 26.2163 6.36122 26.7461 5.82617C27.0815 5.4873 27.2724 5.025 27.2725 4.54004C27.2724 4.055 27.0816 3.59177 26.7461 3.25293C26.411 2.91465 25.9589 2.72662 25.4912 2.72656C25.0232 2.72666 24.5712 2.91468 24.2363 3.25293C23.7065 3.78816 22.8428 3.79252 22.3076 3.2627C21.7729 2.73283 21.7682 1.86904 22.2979 1.33398C23.1422 0.481105 24.2911 9.48679e-05 25.4912 0Z" fill="white"/>
</svg>
