<?xml version="1.0" encoding="UTF-8"?>
<svg id="Ebene_2" data-name="Ebene 2" xmlns="http://www.w3.org/2000/svg" viewBox="0 0 50 50">
  <defs>
    <style>
      .cls-1 {
        fill: #fff;
      }
    </style>
  </defs>
  <g id="Ebene_1-2" data-name="Ebene 1">
    <g>
      <path class="cls-1" d="M25,5.75c11.41,0,20.62,9.34,20.62,20.8,0,5.6-2.2,10.69-5.77,14.43l5.11,5.14c.89.89.88,2.33,0,3.21-.89.89-2.33.88-3.21,0l-5.38-5.41c-3.25,2.17-7.15,3.43-11.35,3.43-4.2,0-8.1-1.27-11.35-3.44l-5.38,5.41c-.89.89-2.32.89-3.21,0-.89-.89-.89-2.33,0-3.21l5.11-5.14c-3.58-3.74-5.77-8.83-5.77-14.43,0-11.47,9.21-20.8,20.62-20.8ZM25,10.29c-8.86,0-16.07,7.26-16.07,16.26,0,9,7.22,16.26,16.07,16.26,8.86,0,16.07-7.26,16.07-16.26,0-9-7.22-16.26-16.07-16.26ZM7.51,0C9.51,0,11.43.81,12.84,2.23c.88.89.88,2.33-.02,3.21-.89.88-2.33.88-3.21-.02-.56-.56-1.31-.88-2.09-.88-.78,0-1.53.31-2.09.88-.56.56-.88,1.34-.88,2.14,0,.81.32,1.58.88,2.14.88.89.88,2.33-.02,3.21-.89.88-2.33.88-3.21-.02C.79,11.49,0,9.57,0,7.57c0-2,.79-3.92,2.19-5.34C3.6.81,5.51,0,7.51,0ZM42.49,0c2,0,3.91.8,5.32,2.22,1.41,1.42,2.19,3.34,2.19,5.34,0,2-.79,3.92-2.19,5.34-.88.89-2.32.9-3.21.02-.89-.88-.9-2.32-.02-3.21.56-.56.88-1.34.88-2.14,0-.81-.32-1.58-.88-2.14-.56-.56-1.31-.88-2.09-.88-.78,0-1.53.31-2.09.88-.88.89-2.32.9-3.21.02-.89-.88-.9-2.32-.02-3.21C38.57.8,40.49,0,42.49,0Z"/>
      <path class="cls-1" d="M32.71,24.3h-5.46v-5.46c0-1.24-1.01-2.25-2.25-2.25s-2.25,1.01-2.25,2.25v5.46h-5.46c-1.24,0-2.25,1.01-2.25,2.25s1.01,2.25,2.25,2.25h5.46v5.46c0,1.24,1.01,2.25,2.25,2.25s2.25-1.01,2.25-2.25v-5.46h5.46c1.24,0,2.25-1.01,2.25-2.25s-1.01-2.25-2.25-2.25Z"/>
    </g>
  </g>
</svg>