<svg width="30" height="30" viewBox="0 0 30 30" fill="none" xmlns="http://www.w3.org/2000/svg">
<path fill-rule="evenodd" clip-rule="evenodd" d="M15.5479 1.3045C16.268 1.3045 16.8506 1.88715 16.8506 2.60723V3.90899H17.5039C21.1042 3.90899 24.0272 6.83125 24.0274 10.4315V14.3445C24.0274 15.3046 24.3335 16.3969 24.8135 17.4949C25.2875 18.5869 25.9052 19.6011 26.4512 20.4051H26.4629C27.453 21.8632 26.8415 24.1668 24.8135 24.533C23.5114 24.767 21.6806 25.0433 19.5264 25.2293V25.4334C19.5264 27.9537 17.4803 29.9998 14.96 29.9998C12.4398 29.9997 10.3936 27.9536 10.3936 25.4334V25.241C8.19144 25.055 6.31933 24.773 4.99321 24.533C2.96503 24.167 2.3528 21.8633 3.34281 20.4051C3.88886 19.601 4.50744 18.581 4.98149 17.4949C5.4615 16.3969 5.76659 15.3046 5.76664 14.3445V10.4315C5.76687 6.83125 8.68982 3.90899 12.2901 3.90899H12.9444V2.60723C12.9444 1.88715 13.5261 1.3045 14.2461 1.3045H15.5479ZM16.8506 25.4031C16.2147 25.4271 15.5605 25.4393 14.8946 25.4393C14.2705 25.4393 13.6519 25.4271 13.0518 25.4031C13.0458 26.4472 13.898 27.3357 14.9541 27.3357L14.9483 27.3416C16.0103 27.3415 16.8626 26.4532 16.8506 25.4031ZM8.05961 0.0388729C8.76163 -0.135036 9.46959 0.291094 9.6436 0.987115V0.981256C9.81737 1.67721 9.39717 2.37939 8.70121 2.55938C8.65929 2.57138 8.61127 2.5894 8.56938 2.60137C8.46145 2.63736 8.29357 2.70293 8.08988 2.79278C7.66988 2.97878 7.10562 3.29132 6.51762 3.77129C5.3655 4.71939 4.09278 6.36941 3.80473 9.25567C3.73273 9.97569 3.091 10.4975 2.37699 10.4256C1.65694 10.3536 1.1351 9.71191 1.20707 8.99786C1.57311 5.36146 3.22933 3.0987 4.85551 1.76055C5.65343 1.1007 6.43372 0.68078 7.01567 0.416803C7.30956 0.284865 7.55544 0.194561 7.73539 0.134576C7.88536 0.0865876 7.96962 0.0628713 8.05961 0.0388729ZM20.1563 0.987115C20.3303 0.297039 21.0512 -0.135146 21.7413 0.0388729C21.8311 0.0628466 21.9156 0.0866286 22.0655 0.134576C22.2455 0.194583 22.4914 0.284885 22.7852 0.416803C23.3672 0.68082 24.1474 1.1006 24.9454 1.76055C26.5715 3.0987 28.2278 5.36146 28.5938 8.99786C28.6657 9.71176 28.1437 10.3534 27.4239 10.4256C26.7098 10.4976 26.0672 9.97575 25.9952 9.25567C25.7071 6.36954 24.4353 4.71941 23.2832 3.77129C22.6952 3.29124 22.131 2.9788 21.711 2.79278C21.507 2.70278 21.3385 2.63737 21.2305 2.60137C21.1886 2.58937 21.1406 2.57136 21.0987 2.55938C20.4028 2.37937 19.9826 1.67713 20.1563 0.981256V0.987115Z" fill="black"/>
</svg>