<svg width="30" height="30" viewBox="0 0 30 30" fill="none" xmlns="http://www.w3.org/2000/svg">
<path d="M15 3.4502C21.8459 3.45023 27.3719 9.04785 27.3721 15.9297C27.3721 19.2896 26.0522 22.3439 23.9043 24.5879L26.9756 27.6719C27.5035 28.2058 27.5036 29.0695 26.9697 29.6035C26.4357 30.1315 25.5721 30.1317 25.0381 29.5977L21.8096 26.3516C19.8596 27.6535 17.52 28.4101 15 28.4102C12.48 28.4102 10.1395 27.6536 8.18945 26.3516L4.95605 29.5977C4.42805 30.1317 3.56427 30.1315 3.03027 29.6035C2.49634 29.0695 2.49644 28.2059 3.02441 27.6719L6.08984 24.5879C3.9479 22.3439 2.62793 19.2896 2.62793 15.9297C2.6281 9.04783 8.1541 3.4502 15 3.4502ZM11.5078 11.8379C11.34 11.838 11.2082 11.9699 11.208 12.1377V13.0381C11.2081 13.2 11.3399 13.3378 11.5078 13.3379H15.3955L11.208 19.5537C11.076 19.7517 11.22 20.0225 11.46 20.0225H18.54C18.708 20.0224 18.8398 19.8896 18.8398 19.7217V18.8223C18.8398 18.6543 18.708 18.5225 18.54 18.5225H14.376L18.5283 12.3057C18.6598 12.1018 18.5219 11.8381 18.2822 11.8379H11.5078ZM4.50586 0C5.70586 0 6.8581 0.485893 7.7041 1.33789C8.23198 1.87177 8.22603 2.73564 7.69238 3.26367C7.15838 3.79767 6.29362 3.79181 5.76562 3.25781C5.42965 2.91599 4.97373 2.73047 4.50586 2.73047C4.03794 2.73051 3.58791 2.91589 3.25195 3.25781C2.91595 3.59381 2.72963 4.05599 2.72363 4.54199C2.72363 5.02799 2.91596 5.49003 3.25195 5.83203C3.78591 6.36598 3.77995 7.2298 3.24609 7.75781C2.71218 8.28572 1.84847 8.28582 1.31445 7.74609C0.474453 6.89409 0 5.74199 0 4.54199C2.13195e-06 3.342 0.474455 2.18989 1.31445 1.33789C2.16039 0.486098 3.30604 3.80484e-05 4.50586 0ZM25.4941 0C26.694 3.69568e-05 27.8396 0.480196 28.6855 1.33203C29.5255 2.18403 30 3.342 30 4.54199C30 5.74199 29.5255 6.89409 28.6855 7.74609C28.1515 8.27982 27.2878 8.28586 26.7539 7.75195C26.22 7.22397 26.2141 6.36015 26.748 5.82617C27.084 5.49017 27.2695 5.02799 27.2695 4.54199C27.2695 4.05599 27.084 3.59395 26.748 3.25195C26.4121 2.91599 25.9621 2.72367 25.4941 2.72363C25.0262 2.72363 24.5704 2.91608 24.2344 3.25195C23.7064 3.78595 22.8416 3.79167 22.3076 3.26367C21.774 2.73566 21.7681 1.87191 22.2959 1.33203C23.1419 0.480031 24.2941 0 25.4941 0Z" fill="black"/>
</svg>