<svg width="25" height="25" viewBox="0 0 25 25" fill="none" xmlns="http://www.w3.org/2000/svg">
<g opacity="1">
<path d="M12.5 0C13.2671 0 13.8889 0.621827 13.8889 1.38889V11.1111H23.6111C24.3782 11.1111 25 11.7329 25 12.5C25 13.2671 24.3782 13.8889 23.6111 13.8889H13.8889V23.6111C13.8889 24.3782 13.2671 25 12.5 25C11.7329 25 11.1111 24.3782 11.1111 23.6111V13.8889H1.38889C0.621828 13.8889 5.24255e-07 13.2671 0 12.5C3.35293e-08 11.7329 0.621827 11.1111 1.38889 11.1111H11.1111V1.38889C11.1111 0.621827 11.7329 0 12.5 0Z" fill="black"/>
</g>
</svg>